<svg xmlns="http://www.w3.org/2000/svg" xmlns:xlink="http://www.w3.org/1999/xlink" xmlns:s="https://github.com/nturley/netlistsvg" width="1097.5" height="509"><style>svg {
  stroke:#000;
  fill:none;
}
text {
  fill:#000;
  stroke:none;
  font-size:10px;
  font-weight: bold;
  font-family: "Courier New", monospace;
}
line {
    stroke-linecap: round;
}
.nodelabel {
  text-anchor: middle;
}
.inputPortLabel {
  text-anchor: end;
}
.splitjoinBody {
  fill:#000;
}</style><g s:type="generic" transform="translate(294,122)" s:width="30" s:height="40" id="cell_$auto$opt_reduce.cc:128:opt_pmux$13"><text x="15" y="-4" class="nodelabel cell_$auto$opt_reduce.cc:128:opt_pmux$13" s:attribute="ref">$reduce_or</text><rect width="30" height="20" s:generic="body" fill="#ffae46" rx="0" class="cell_$auto$opt_reduce.cc:128:opt_pmux$13"/><g transform="translate(0,10)" s:x="0" s:y="10" s:pid="in0" id="port_$auto$opt_reduce.cc:128:opt_pmux$13~A"><text x="-3" y="-4" class="inputPortLabel cell_$auto$opt_reduce.cc:128:opt_pmux$13">A</text></g><g transform="translate(30,10)" s:x="30" s:y="10" s:pid="out0" id="port_$auto$opt_reduce.cc:128:opt_pmux$13~Y"><text x="5" y="-4" style="fill:#000; stroke:none" class="cell_$auto$opt_reduce.cc:128:opt_pmux$13">Y</text></g></g><g s:type="eq" transform="translate(353.3333333333333,325)" s:width="25" s:height="25" id="cell_$procmux$10_CMP0"><s:alias val="$eq"/><circle r="12.5" cx="12.5" cy="12.5" fill="#ffc9c3" class="cell_$procmux$10_CMP0"/><line x1="7.5" x2="17.5" y1="10" y2="10" class="cell_$procmux$10_CMP0"/><line x1="7.5" x2="17.5" y1="15" y2="15" class="cell_$procmux$10_CMP0"/><g s:x="2" s:y="5" s:pid="A"/><g s:x="2" s:y="20" s:pid="B"/><g s:x="25" s:y="12.5" s:pid="Y"/></g><g s:type="eq" transform="translate(353.3333333333333,385)" s:width="25" s:height="25" id="cell_$procmux$11_CMP0"><s:alias val="$eq"/><circle r="12.5" cx="12.5" cy="12.5" fill="#ffc9c3" class="cell_$procmux$11_CMP0"/><line x1="7.5" x2="17.5" y1="10" y2="10" class="cell_$procmux$11_CMP0"/><line x1="7.5" x2="17.5" y1="15" y2="15" class="cell_$procmux$11_CMP0"/><g s:x="2" s:y="5" s:pid="A"/><g s:x="2" s:y="20" s:pid="B"/><g s:x="25" s:y="12.5" s:pid="Y"/></g><g s:type="eq" transform="translate(353.3333333333333,445)" s:width="25" s:height="25" id="cell_$procmux$12_CMP0"><s:alias val="$eq"/><circle r="12.5" cx="12.5" cy="12.5" fill="#ffc9c3" class="cell_$procmux$12_CMP0"/><line x1="7.5" x2="17.5" y1="10" y2="10" class="cell_$procmux$12_CMP0"/><line x1="7.5" x2="17.5" y1="15" y2="15" class="cell_$procmux$12_CMP0"/><g s:x="2" s:y="5" s:pid="A"/><g s:x="2" s:y="20" s:pid="B"/><g s:x="25" s:y="12.5" s:pid="Y"/></g><g s:type="mux-bus" transform="translate(682.6666666666666,272)" s:width="24" s:height="40" id="cell_$procmux$5"><s:alias val="$pmux-bus"/><s:alias val="$mux-bus"/><s:alias val="$_MUX_-bus"/><path d="M8,2 L8,0 L24,8 L24,32 L8,40 L8,38" fill="#ffffff" class="cell_$procmux$5"/><path d="M4,2 L4,0 L22,9 L22,31 L4,40 L4,38" fill="#ffffff" class="cell_$procmux$5"/><path d="M0,0 L20,10 L20,30 L0,40 Z" fill="#ffffff" class="cell_$procmux$5"/><text x="5" y="32" class="nodelabel cell_$procmux$5" s:attribute="">1</text><text x="5" y="13" class="nodelabel cell_$procmux$5" s:attribute="">0</text><g s:x="-1" s:y="10" s:pid="A"/><g s:x="-1" s:y="30" s:pid="B"/><g s:x="12" s:y="38" s:pid="S"/><g s:x="24.5" s:y="20" s:pid="Y"/></g><g s:type="eq" transform="translate(122,65)" s:width="25" s:height="25" id="cell_$procmux$6_CMP0"><s:alias val="$eq"/><circle r="12.5" cx="12.5" cy="12.5" fill="#ffc9c3" class="cell_$procmux$6_CMP0"/><line x1="7.5" x2="17.5" y1="10" y2="10" class="cell_$procmux$6_CMP0"/><line x1="7.5" x2="17.5" y1="15" y2="15" class="cell_$procmux$6_CMP0"/><g s:x="2" s:y="5" s:pid="A"/><g s:x="2" s:y="20" s:pid="B"/><g s:x="25" s:y="12.5" s:pid="Y"/></g><g s:type="eq" transform="translate(122,130)" s:width="25" s:height="25" id="cell_$procmux$7_CMP0"><s:alias val="$eq"/><circle r="12.5" cx="12.5" cy="12.5" fill="#ffc9c3" class="cell_$procmux$7_CMP0"/><line x1="7.5" x2="17.5" y1="10" y2="10" class="cell_$procmux$7_CMP0"/><line x1="7.5" x2="17.5" y1="15" y2="15" class="cell_$procmux$7_CMP0"/><g s:x="2" s:y="5" s:pid="A"/><g s:x="2" s:y="20" s:pid="B"/><g s:x="25" s:y="12.5" s:pid="Y"/></g><g s:type="eq" transform="translate(353.3333333333333,205)" s:width="25" s:height="25" id="cell_$procmux$8_CMP0"><s:alias val="$eq"/><circle r="12.5" cx="12.5" cy="12.5" fill="#ffc9c3" class="cell_$procmux$8_CMP0"/><line x1="7.5" x2="17.5" y1="10" y2="10" class="cell_$procmux$8_CMP0"/><line x1="7.5" x2="17.5" y1="15" y2="15" class="cell_$procmux$8_CMP0"/><g s:x="2" s:y="5" s:pid="A"/><g s:x="2" s:y="20" s:pid="B"/><g s:x="25" s:y="12.5" s:pid="Y"/></g><g s:type="eq" transform="translate(353.3333333333333,265)" s:width="25" s:height="25" id="cell_$procmux$9_CMP0"><s:alias val="$eq"/><circle r="12.5" cx="12.5" cy="12.5" fill="#ffc9c3" class="cell_$procmux$9_CMP0"/><line x1="7.5" x2="17.5" y1="10" y2="10" class="cell_$procmux$9_CMP0"/><line x1="7.5" x2="17.5" y1="15" y2="15" class="cell_$procmux$9_CMP0"/><g s:x="2" s:y="5" s:pid="A"/><g s:x="2" s:y="20" s:pid="B"/><g s:x="25" s:y="12.5" s:pid="Y"/></g><g s:type="mux-bus" transform="translate(836,262)" s:width="24" s:height="40" id="cell_$ternary$Control.v:14$1"><s:alias val="$pmux-bus"/><s:alias val="$mux-bus"/><s:alias val="$_MUX_-bus"/><path d="M8,2 L8,0 L24,8 L24,32 L8,40 L8,38" fill="#ffffff" class="cell_$ternary$Control.v:14$1"/><path d="M4,2 L4,0 L22,9 L22,31 L4,40 L4,38" fill="#ffffff" class="cell_$ternary$Control.v:14$1"/><path d="M0,0 L20,10 L20,30 L0,40 Z" fill="#ffffff" class="cell_$ternary$Control.v:14$1"/><text x="5" y="32" class="nodelabel cell_$ternary$Control.v:14$1" s:attribute="">1</text><text x="5" y="13" class="nodelabel cell_$ternary$Control.v:14$1" s:attribute="">0</text><g s:x="-1" s:y="10" s:pid="A"/><g s:x="-1" s:y="30" s:pid="B"/><g s:x="12" s:y="38" s:pid="S"/><g s:x="24.5" s:y="20" s:pid="Y"/></g><g s:type="inputExt" transform="translate(12,304)" s:width="30" s:height="20" id="cell_Opcode"><text x="15" y="-4" class="nodelabel cell_Opcode" s:attribute="ref">Opcode</text><s:alias val="$_inputExt_"/><path d="M0,0 L0,20 L15,20 L30,10 L15,0 Z" fill="#8bcaff" class="cell_Opcode"/><g s:x="30" s:y="10" s:pid="Y"/></g><g s:type="inputExt" transform="translate(746,343)" s:width="30" s:height="20" id="cell_Controlen"><text x="15" y="-4" class="nodelabel cell_Controlen" s:attribute="ref">Controlen</text><s:alias val="$_inputExt_"/><path d="M0,0 L0,20 L15,20 L30,10 L15,0 Z" fill="#8bcaff" class="cell_Controlen"/><g s:x="30" s:y="10" s:pid="Y"/></g><g s:type="outputExt" transform="translate(1037.5,22)" s:width="30" s:height="20" id="cell_ALUSrc"><text x="15" y="-4" class="nodelabel cell_ALUSrc" s:attribute="ref">ALUSrc</text><s:alias val="$_outputExt_"/><path d="M30,0 L30,20 L15,20 L0,10 L15,0 Z" fill="#169300" class="cell_ALUSrc"/><g s:x="0" s:y="10" s:pid="A"/></g><g s:type="outputExt" transform="translate(1037.5,87)" s:width="30" s:height="20" id="cell_MemtoReg"><text x="15" y="-4" class="nodelabel cell_MemtoReg" s:attribute="ref">MemtoReg</text><s:alias val="$_outputExt_"/><path d="M30,0 L30,20 L15,20 L0,10 L15,0 Z" fill="#169300" class="cell_MemtoReg"/><g s:x="0" s:y="10" s:pid="A"/></g><g s:type="outputExt" transform="translate(1037.5,152)" s:width="30" s:height="20" id="cell_RegWrite"><text x="15" y="-4" class="nodelabel cell_RegWrite" s:attribute="ref">RegWrite</text><s:alias val="$_outputExt_"/><path d="M30,0 L30,20 L15,20 L0,10 L15,0 Z" fill="#169300" class="cell_RegWrite"/><g s:x="0" s:y="10" s:pid="A"/></g><g s:type="outputExt" transform="translate(1037.5,217)" s:width="30" s:height="20" id="cell_MemRead"><text x="15" y="-4" class="nodelabel cell_MemRead" s:attribute="ref">MemRead</text><s:alias val="$_outputExt_"/><path d="M30,0 L30,20 L15,20 L0,10 L15,0 Z" fill="#169300" class="cell_MemRead"/><g s:x="0" s:y="10" s:pid="A"/></g><g s:type="outputExt" transform="translate(1037.5,282)" s:width="30" s:height="20" id="cell_MemWrite"><text x="15" y="-4" class="nodelabel cell_MemWrite" s:attribute="ref">MemWrite</text><s:alias val="$_outputExt_"/><path d="M30,0 L30,20 L15,20 L0,10 L15,0 Z" fill="#169300" class="cell_MemWrite"/><g s:x="0" s:y="10" s:pid="A"/></g><g s:type="outputExt" transform="translate(1037.5,347)" s:width="30" s:height="20" id="cell_Branch"><text x="15" y="-4" class="nodelabel cell_Branch" s:attribute="ref">Branch</text><s:alias val="$_outputExt_"/><path d="M30,0 L30,20 L15,20 L0,10 L15,0 Z" fill="#169300" class="cell_Branch"/><g s:x="0" s:y="10" s:pid="A"/></g><g s:type="outputExt" transform="translate(1037.5,412)" s:width="30" s:height="20" id="cell_Jump"><text x="15" y="-4" class="nodelabel cell_Jump" s:attribute="ref">Jump</text><s:alias val="$_outputExt_"/><path d="M30,0 L30,20 L15,20 L0,10 L15,0 Z" fill="#169300" class="cell_Jump"/><g s:x="0" s:y="10" s:pid="A"/></g><g s:type="outputExt" transform="translate(1037.5,477)" s:width="30" s:height="20" id="cell_ALUOp"><text x="15" y="-4" class="nodelabel cell_ALUOp" s:attribute="ref">ALUOp</text><s:alias val="$_outputExt_"/><path d="M30,0 L30,20 L15,20 L0,10 L15,0 Z" fill="#169300" class="cell_ALUOp"/><g s:x="0" s:y="10" s:pid="A"/></g><g s:type="constant" transform="translate(182,335)" s:width="30" s:height="20" id="cell_0100011"><text x="15" y="-4" class="nodelabel cell_0100011" s:attribute="ref">0x23</text><s:alias val="$_constant_"/><rect width="30" height="20" fill="#745bff" class="cell_0100011"/><g s:x="31" s:y="10" s:pid="Y"/></g><g s:type="constant" transform="translate(182,395)" s:width="30" s:height="20" id="cell_0000011"><text x="15" y="-4" class="nodelabel cell_0000011" s:attribute="ref">0x3</text><s:alias val="$_constant_"/><rect width="30" height="20" fill="#745bff" class="cell_0000011"/><g s:x="31" s:y="10" s:pid="Y"/></g><g s:type="constant" transform="translate(182,455)" s:width="30" s:height="20" id="cell_0110011"><text x="15" y="-4" class="nodelabel cell_0110011" s:attribute="ref">0x33</text><s:alias val="$_constant_"/><rect width="30" height="20" fill="#745bff" class="cell_0110011"/><g s:x="31" s:y="10" s:pid="Y"/></g><g s:type="constant" transform="translate(564,227)" s:width="30" s:height="20" id="cell_xxxxxxxxx"><text x="15" y="-4" class="nodelabel cell_xxxxxxxxx" s:attribute="ref">0xNaN</text><s:alias val="$_constant_"/><rect width="30" height="20" fill="#745bff" class="cell_xxxxxxxxx"/><g s:x="31" s:y="10" s:pid="Y"/></g><g s:type="constant" transform="translate(564,292)" s:width="30" s:height="20" id="cell_0010000101111000001x00100000x0001001101000011111xx0100"><text x="15" y="-4" class="nodelabel cell_0010000101111000001x00100000x0001001101000011111xx0100" s:attribute="ref">0x10bc1</text><s:alias val="$_constant_"/><rect width="30" height="20" fill="#745bff" class="cell_0010000101111000001x00100000x0001001101000011111xx0100"/><g s:x="31" s:y="10" s:pid="Y"/></g><g s:type="constant" transform="translate(12,75)" s:width="30" s:height="20" id="cell_1101111"><text x="15" y="-4" class="nodelabel cell_1101111" s:attribute="ref">0x6f</text><s:alias val="$_constant_"/><rect width="30" height="20" fill="#745bff" class="cell_1101111"/><g s:x="31" s:y="10" s:pid="Y"/></g><g s:type="constant" transform="translate(12,140)" s:width="30" s:height="20" id="cell_1100111"><text x="15" y="-4" class="nodelabel cell_1100111" s:attribute="ref">0x67</text><s:alias val="$_constant_"/><rect width="30" height="20" fill="#745bff" class="cell_1100111"/><g s:x="31" s:y="10" s:pid="Y"/></g><g s:type="constant" transform="translate(182,215)" s:width="30" s:height="20" id="cell_0010011"><text x="15" y="-4" class="nodelabel cell_0010011" s:attribute="ref">0x13</text><s:alias val="$_constant_"/><rect width="30" height="20" fill="#745bff" class="cell_0010011"/><g s:x="31" s:y="10" s:pid="Y"/></g><g s:type="constant" transform="translate(182,275)" s:width="30" s:height="20" id="cell_1100011"><text x="15" y="-4" class="nodelabel cell_1100011" s:attribute="ref">0x63</text><s:alias val="$_constant_"/><rect width="30" height="20" fill="#745bff" class="cell_1100011"/><g s:x="31" s:y="10" s:pid="Y"/></g><g s:type="constant" transform="translate(680,217)" s:width="30" s:height="20" id="cell_000000000"><text x="15" y="-4" class="nodelabel cell_000000000" s:attribute="ref">0x0</text><s:alias val="$_constant_"/><rect width="30" height="20" fill="#745bff" class="cell_000000000"/><g s:x="31" s:y="10" s:pid="Y"/></g><g s:type="join" transform="translate(193.33333333333334,112)" s:width="5" s:height="40" id="cell_$join$,19,20,"><rect width="5" height="40" class="splitjoinBody" s:generic="body"/><s:alias val="$_join_"/><g s:x="5" s:y="20" s:pid="out"/><g transform="translate(-1,10)" s:x="-1" s:y="10" s:pid="in0"><text x="-3" y="-4" class="inputPortLabel">0</text></g><g transform="translate(-1,30)" s:x="-1" s:y="10" s:pid="in0"><text x="-3" y="-4" class="inputPortLabel">1</text></g></g><g s:type="join" transform="translate(575,347)" s:width="5" s:height="40" id="cell_$join$,21,25,26,22,23,24,"><rect width="5" height="120" class="splitjoinBody" s:generic="body"/><s:alias val="$_join_"/><g s:x="5" s:y="20" s:pid="out"/><g transform="translate(-1,10)" s:x="-1" s:y="10" s:pid="in0"><text x="-3" y="-4" class="inputPortLabel">0</text></g><g transform="translate(-1,30)" s:x="-1" s:y="10" s:pid="in0"><text x="-3" y="-4" class="inputPortLabel">1</text></g><g transform="translate(-1,50)" s:x="-1" s:y="10" s:pid="in0"><text x="-3" y="-4" class="inputPortLabel">2</text></g><g transform="translate(-1,70)" s:x="-1" s:y="10" s:pid="in0"><text x="-3" y="-4" class="inputPortLabel">3</text></g><g transform="translate(-1,90)" s:x="-1" s:y="10" s:pid="in0"><text x="-3" y="-4" class="inputPortLabel">4</text></g><g transform="translate(-1,110)" s:x="-1" s:y="10" s:pid="in0"><text x="-3" y="-4" class="inputPortLabel">5</text></g></g><g s:type="split" transform="translate(935.5,201.5)" s:width="5" s:height="40" id="cell_$split$,17,18,16,15,14,13,12,11,10,"><rect width="5" height="160" class="splitjoinBody" s:generic="body"/><s:alias val="$_split_"/><g s:x="-1" s:y="20" s:pid="in"/><g transform="translate(5,10)" s:x="5" s:y="10" s:pid="out0"><text x="5" y="-4">8</text></g><g transform="translate(5,30)" s:x="5" s:y="10" s:pid="out0"><text x="5" y="-4">7</text></g><g transform="translate(5,50)" s:x="5" s:y="10" s:pid="out0"><text x="5" y="-4">6</text></g><g transform="translate(5,70)" s:x="5" s:y="10" s:pid="out0"><text x="5" y="-4">5</text></g><g transform="translate(5,90)" s:x="5" s:y="10" s:pid="out0"><text x="5" y="-4">4</text></g><g transform="translate(5,110)" s:x="5" s:y="10" s:pid="out0"><text x="5" y="-4">3</text></g><g transform="translate(5,130)" s:x="5" s:y="10" s:pid="out0"><text x="5" y="-4">2</text></g><g transform="translate(5,150)" s:x="5" s:y="10" s:pid="out0"><text x="5" y="-4">0:1</text></g></g><line x1="199.33333333333334" x2="294" y1="132.5" y2="132.5" class="net_19,20 width_2" style="stroke-width: 2"/><line x1="42" x2="262" y1="314" y2="314" class="net_2,3,4,5,6,7,8 width_7" style="stroke-width: 2"/><line x1="262" x2="262" y1="314" y2="330" class="net_2,3,4,5,6,7,8 width_7" style="stroke-width: 2"/><line x1="262" x2="355.3333333333333" y1="330" y2="330" class="net_2,3,4,5,6,7,8 width_7" style="stroke-width: 2"/><line x1="42" x2="97" y1="314" y2="314" class="net_2,3,4,5,6,7,8 width_7" style="stroke-width: 2"/><line x1="97" x2="97" y1="314" y2="374" class="net_2,3,4,5,6,7,8 width_7" style="stroke-width: 2"/><line x1="97" x2="262" y1="374" y2="374" class="net_2,3,4,5,6,7,8 width_7" style="stroke-width: 2"/><line x1="262" x2="262" y1="374" y2="390" class="net_2,3,4,5,6,7,8 width_7" style="stroke-width: 2"/><circle cx="97" cy="374" r="3" style="fill:#000" class="net_2,3,4,5,6,7,8 width_7"/><line x1="262" x2="355.3333333333333" y1="390" y2="390" class="net_2,3,4,5,6,7,8 width_7" style="stroke-width: 2"/><line x1="42" x2="97" y1="314" y2="314" class="net_2,3,4,5,6,7,8 width_7" style="stroke-width: 2"/><line x1="97" x2="97" y1="314" y2="434" class="net_2,3,4,5,6,7,8 width_7" style="stroke-width: 2"/><line x1="97" x2="262" y1="434" y2="434" class="net_2,3,4,5,6,7,8 width_7" style="stroke-width: 2"/><line x1="262" x2="262" y1="434" y2="450" class="net_2,3,4,5,6,7,8 width_7" style="stroke-width: 2"/><line x1="262" x2="355.3333333333333" y1="450" y2="450" class="net_2,3,4,5,6,7,8 width_7" style="stroke-width: 2"/><line x1="42" x2="58" y1="314" y2="314" class="net_2,3,4,5,6,7,8 width_7" style="stroke-width: 2"/><line x1="58" x2="58" y1="314" y2="65" class="net_2,3,4,5,6,7,8 width_7" style="stroke-width: 2"/><line x1="58" x2="97" y1="65" y2="65" class="net_2,3,4,5,6,7,8 width_7" style="stroke-width: 2"/><line x1="97" x2="97" y1="65" y2="70" class="net_2,3,4,5,6,7,8 width_7" style="stroke-width: 2"/><circle cx="58" cy="314" r="3" style="fill:#000" class="net_2,3,4,5,6,7,8 width_7"/><line x1="97" x2="124" y1="70" y2="70" class="net_2,3,4,5,6,7,8 width_7" style="stroke-width: 2"/><line x1="42" x2="58" y1="314" y2="314" class="net_2,3,4,5,6,7,8 width_7" style="stroke-width: 2"/><line x1="58" x2="58" y1="314" y2="130" class="net_2,3,4,5,6,7,8 width_7" style="stroke-width: 2"/><line x1="58" x2="97" y1="130" y2="130" class="net_2,3,4,5,6,7,8 width_7" style="stroke-width: 2"/><line x1="97" x2="97" y1="130" y2="135" class="net_2,3,4,5,6,7,8 width_7" style="stroke-width: 2"/><circle cx="58" cy="130" r="3" style="fill:#000" class="net_2,3,4,5,6,7,8 width_7"/><line x1="97" x2="124" y1="135" y2="135" class="net_2,3,4,5,6,7,8 width_7" style="stroke-width: 2"/><line x1="42" x2="97" y1="314" y2="314" class="net_2,3,4,5,6,7,8 width_7" style="stroke-width: 2"/><line x1="97" x2="97" y1="314" y2="194" class="net_2,3,4,5,6,7,8 width_7" style="stroke-width: 2"/><line x1="97" x2="262" y1="194" y2="194" class="net_2,3,4,5,6,7,8 width_7" style="stroke-width: 2"/><line x1="262" x2="262" y1="194" y2="210" class="net_2,3,4,5,6,7,8 width_7" style="stroke-width: 2"/><circle cx="97" cy="314" r="3" style="fill:#000" class="net_2,3,4,5,6,7,8 width_7"/><line x1="262" x2="355.3333333333333" y1="210" y2="210" class="net_2,3,4,5,6,7,8 width_7" style="stroke-width: 2"/><line x1="42" x2="97" y1="314" y2="314" class="net_2,3,4,5,6,7,8 width_7" style="stroke-width: 2"/><line x1="97" x2="97" y1="314" y2="254" class="net_2,3,4,5,6,7,8 width_7" style="stroke-width: 2"/><line x1="97" x2="262" y1="254" y2="254" class="net_2,3,4,5,6,7,8 width_7" style="stroke-width: 2"/><line x1="262" x2="262" y1="254" y2="270" class="net_2,3,4,5,6,7,8 width_7" style="stroke-width: 2"/><circle cx="97" cy="254" r="3" style="fill:#000" class="net_2,3,4,5,6,7,8 width_7"/><line x1="262" x2="355.3333333333333" y1="270" y2="270" class="net_2,3,4,5,6,7,8 width_7" style="stroke-width: 2"/><line x1="213" x2="355.3333333333333" y1="345" y2="345" class="net_36,37,38,39,40,41,42 width_7" style="stroke-width: 2"/><line x1="213" x2="355.3333333333333" y1="405" y2="405" class="net_43,44,45,46,47,48,49 width_7" style="stroke-width: 2"/><line x1="213" x2="355.3333333333333" y1="465" y2="465" class="net_50,51,52,53,54,55,56 width_7" style="stroke-width: 2"/><line x1="595" x2="655" y1="237" y2="237" class="net_57,58,59,60,61,62,63,64,65 width_9" style="stroke-width: 2"/><line x1="655" x2="655" y1="237" y2="282" class="net_57,58,59,60,61,62,63,64,65 width_9" style="stroke-width: 2"/><line x1="655" x2="681.6666666666666" y1="282" y2="282" class="net_57,58,59,60,61,62,63,64,65 width_9" style="stroke-width: 2"/><line x1="595" x2="681.6666666666666" y1="302" y2="302" class="net_66,67,68,69,70,71,72,73,74,75,76,77,78,79,80,81,82,83,84,85,86,87,88,89,90,91,92,93,94,95,96,97,98,99,100,101,102,103,104,105,106,107,108,109,110,111,112,113,114,115,116,117,118,119 width_54" style="stroke-width: 2"/><line x1="581" x2="694.6666666666666" y1="407.5" y2="407.5" class="net_21,25,26,22,23,24 width_6" style="stroke-width: 2"/><line x1="694.6666666666666" x2="694.6666666666666" y1="407.5" y2="310" class="net_21,25,26,22,23,24 width_6" style="stroke-width: 2"/><line x1="43" x2="124" y1="85" y2="85" class="net_120,121,122,123,124,125,126 width_7" style="stroke-width: 2"/><line x1="43" x2="124" y1="150" y2="150" class="net_127,128,129,130,131,132,133 width_7" style="stroke-width: 2"/><line x1="213" x2="355.3333333333333" y1="225" y2="225" class="net_134,135,136,137,138,139,140 width_7" style="stroke-width: 2"/><line x1="213" x2="355.3333333333333" y1="285" y2="285" class="net_141,142,143,144,145,146,147 width_7" style="stroke-width: 2"/><line x1="711" x2="810" y1="227" y2="227" class="net_148,149,150,151,152,153,154,155,156 width_9" style="stroke-width: 2"/><line x1="810" x2="810" y1="227" y2="272" class="net_148,149,150,151,152,153,154,155,156 width_9" style="stroke-width: 2"/><line x1="810" x2="835" y1="272" y2="272" class="net_148,149,150,151,152,153,154,155,156 width_9" style="stroke-width: 2"/><line x1="707.1666666666666" x2="835" y1="292" y2="292" class="net_27,28,29,30,31,32,33,34,35 width_9" style="stroke-width: 2"/><line x1="776" x2="848" y1="353" y2="353" class="net_9 width_1" style="stroke-width: 1"/><line x1="848" x2="848" y1="353" y2="300" class="net_9 width_1" style="stroke-width: 1"/><line x1="941.5" x2="958.5" y1="212" y2="212" class="net_10 width_1" style="stroke-width: 1"/><line x1="958.5" x2="958.5" y1="212" y2="32" class="net_10 width_1" style="stroke-width: 1"/><line x1="958.5" x2="1037.5" y1="32" y2="32" class="net_10 width_1" style="stroke-width: 1"/><line x1="941.5" x2="968.5" y1="232" y2="232" class="net_11 width_1" style="stroke-width: 1"/><line x1="968.5" x2="968.5" y1="232" y2="97" class="net_11 width_1" style="stroke-width: 1"/><line x1="968.5" x2="1037.5" y1="97" y2="97" class="net_11 width_1" style="stroke-width: 1"/><line x1="941.5" x2="978.5" y1="252" y2="252" class="net_12 width_1" style="stroke-width: 1"/><line x1="978.5" x2="978.5" y1="252" y2="162" class="net_12 width_1" style="stroke-width: 1"/><line x1="978.5" x2="1037.5" y1="162" y2="162" class="net_12 width_1" style="stroke-width: 1"/><line x1="941.5" x2="988.5" y1="272" y2="272" class="net_13 width_1" style="stroke-width: 1"/><line x1="988.5" x2="988.5" y1="272" y2="227" class="net_13 width_1" style="stroke-width: 1"/><line x1="988.5" x2="1037.5" y1="227" y2="227" class="net_13 width_1" style="stroke-width: 1"/><line x1="941.5" x2="1037.5" y1="292" y2="292" class="net_14 width_1" style="stroke-width: 1"/><line x1="941.5" x2="978.5" y1="312" y2="312" class="net_15 width_1" style="stroke-width: 1"/><line x1="978.5" x2="978.5" y1="312" y2="357" class="net_15 width_1" style="stroke-width: 1"/><line x1="978.5" x2="1037.5" y1="357" y2="357" class="net_15 width_1" style="stroke-width: 1"/><line x1="941.5" x2="968.5" y1="332" y2="332" class="net_16 width_1" style="stroke-width: 1"/><line x1="968.5" x2="968.5" y1="332" y2="422" class="net_16 width_1" style="stroke-width: 1"/><line x1="968.5" x2="1037.5" y1="422" y2="422" class="net_16 width_1" style="stroke-width: 1"/><line x1="941.5" x2="958.5" y1="352" y2="352" class="net_17,18 width_2" style="stroke-width: 2"/><line x1="958.5" x2="958.5" y1="352" y2="487" class="net_17,18 width_2" style="stroke-width: 2"/><line x1="958.5" x2="1037.5" y1="487" y2="487" class="net_17,18 width_2" style="stroke-width: 2"/><line x1="147" x2="157" y1="77.5" y2="77.5" class="net_19 width_1" style="stroke-width: 1"/><line x1="157" x2="157" y1="77.5" y2="122.5" class="net_19 width_1" style="stroke-width: 1"/><line x1="157" x2="192.33333333333334" y1="122.5" y2="122.5" class="net_19 width_1" style="stroke-width: 1"/><line x1="147" x2="192.33333333333334" y1="142.5" y2="142.5" class="net_20 width_1" style="stroke-width: 1"/><line x1="325" x2="554" y1="132.5" y2="132.5" class="net_21 width_1" style="stroke-width: 1"/><line x1="554" x2="554" y1="132.5" y2="357.5" class="net_21 width_1" style="stroke-width: 1"/><line x1="554" x2="574" y1="357.5" y2="357.5" class="net_21 width_1" style="stroke-width: 1"/><line x1="378.3333333333333" x2="544" y1="217.5" y2="217.5" class="net_25 width_1" style="stroke-width: 1"/><line x1="544" x2="544" y1="217.5" y2="377.5" class="net_25 width_1" style="stroke-width: 1"/><line x1="544" x2="574" y1="377.5" y2="377.5" class="net_25 width_1" style="stroke-width: 1"/><line x1="378.3333333333333" x2="534" y1="277.5" y2="277.5" class="net_26 width_1" style="stroke-width: 1"/><line x1="534" x2="534" y1="277.5" y2="397.5" class="net_26 width_1" style="stroke-width: 1"/><line x1="534" x2="574" y1="397.5" y2="397.5" class="net_26 width_1" style="stroke-width: 1"/><line x1="378.3333333333333" x2="524" y1="337.5" y2="337.5" class="net_22 width_1" style="stroke-width: 1"/><line x1="524" x2="524" y1="337.5" y2="417.5" class="net_22 width_1" style="stroke-width: 1"/><line x1="524" x2="574" y1="417.5" y2="417.5" class="net_22 width_1" style="stroke-width: 1"/><line x1="378.3333333333333" x2="514" y1="397.5" y2="397.5" class="net_23 width_1" style="stroke-width: 1"/><line x1="514" x2="514" y1="397.5" y2="437.5" class="net_23 width_1" style="stroke-width: 1"/><line x1="514" x2="574" y1="437.5" y2="437.5" class="net_23 width_1" style="stroke-width: 1"/><line x1="378.3333333333333" x2="574" y1="457.5" y2="457.5" class="net_24 width_1" style="stroke-width: 1"/><line x1="860.5" x2="934.5" y1="282" y2="282" class="net_17,18,16,15,14,13,12,11,10 width_9" style="stroke-width: 2"/><rect x="249" y="127.5" width="16" height="9" class="net_19,20 width_2 busLabel_2" style="fill: white; stroke: none"/><text x="248" y="135.5" class="net_19,20 width_2 busLabel_2">/2/</text><rect x="133.5" y="249" width="16" height="9" class="net_2,3,4,5,6,7,8 width_7 busLabel_7" style="fill: white; stroke: none"/><text x="132.5" y="257" class="net_2,3,4,5,6,7,8 width_7 busLabel_7">/7/</text><rect x="133.5" y="249" width="16" height="9" class="net_2,3,4,5,6,7,8 width_7 busLabel_7" style="fill: white; stroke: none"/><text x="132.5" y="257" class="net_2,3,4,5,6,7,8 width_7 busLabel_7">/7/</text><rect x="133.5" y="249" width="16" height="9" class="net_2,3,4,5,6,7,8 width_7 busLabel_7" style="fill: white; stroke: none"/><text x="132.5" y="257" class="net_2,3,4,5,6,7,8 width_7 busLabel_7">/7/</text><rect x="133.5" y="249" width="16" height="9" class="net_2,3,4,5,6,7,8 width_7 busLabel_7" style="fill: white; stroke: none"/><text x="132.5" y="257" class="net_2,3,4,5,6,7,8 width_7 busLabel_7">/7/</text><rect x="133.5" y="249" width="16" height="9" class="net_2,3,4,5,6,7,8 width_7 busLabel_7" style="fill: white; stroke: none"/><text x="132.5" y="257" class="net_2,3,4,5,6,7,8 width_7 busLabel_7">/7/</text><rect x="133.5" y="249" width="16" height="9" class="net_2,3,4,5,6,7,8 width_7 busLabel_7" style="fill: white; stroke: none"/><text x="132.5" y="257" class="net_2,3,4,5,6,7,8 width_7 busLabel_7">/7/</text><rect x="133.5" y="249" width="16" height="9" class="net_2,3,4,5,6,7,8 width_7 busLabel_7" style="fill: white; stroke: none"/><text x="132.5" y="257" class="net_2,3,4,5,6,7,8 width_7 busLabel_7">/7/</text><rect x="249" y="340" width="16" height="9" class="net_36,37,38,39,40,41,42 width_7 busLabel_7" style="fill: white; stroke: none"/><text x="248" y="348" class="net_36,37,38,39,40,41,42 width_7 busLabel_7">/7/</text><rect x="249" y="400" width="16" height="9" class="net_43,44,45,46,47,48,49 width_7 busLabel_7" style="fill: white; stroke: none"/><text x="248" y="408" class="net_43,44,45,46,47,48,49 width_7 busLabel_7">/7/</text><rect x="249" y="460" width="16" height="9" class="net_50,51,52,53,54,55,56 width_7 busLabel_7" style="fill: white; stroke: none"/><text x="248" y="468" class="net_50,51,52,53,54,55,56 width_7 busLabel_7">/7/</text><rect x="642" y="232" width="16" height="9" class="net_57,58,59,60,61,62,63,64,65 width_9 busLabel_9" style="fill: white; stroke: none"/><text x="641" y="240" class="net_57,58,59,60,61,62,63,64,65 width_9 busLabel_9">/9/</text><rect x="642" y="297" width="22" height="9" class="net_66,67,68,69,70,71,72,73,74,75,76,77,78,79,80,81,82,83,84,85,86,87,88,89,90,91,92,93,94,95,96,97,98,99,100,101,102,103,104,105,106,107,108,109,110,111,112,113,114,115,116,117,118,119 width_54 busLabel_54" style="fill: white; stroke: none"/><text x="641" y="305" class="net_66,67,68,69,70,71,72,73,74,75,76,77,78,79,80,81,82,83,84,85,86,87,88,89,90,91,92,93,94,95,96,97,98,99,100,101,102,103,104,105,106,107,108,109,110,111,112,113,114,115,116,117,118,119 width_54 busLabel_54">/54/</text><rect x="642" y="402.5" width="16" height="9" class="net_21,25,26,22,23,24 width_6 busLabel_6" style="fill: white; stroke: none"/><text x="641" y="410.5" class="net_21,25,26,22,23,24 width_6 busLabel_6">/6/</text><rect x="84" y="80" width="16" height="9" class="net_120,121,122,123,124,125,126 width_7 busLabel_7" style="fill: white; stroke: none"/><text x="83" y="88" class="net_120,121,122,123,124,125,126 width_7 busLabel_7">/7/</text><rect x="84" y="145" width="16" height="9" class="net_127,128,129,130,131,132,133 width_7 busLabel_7" style="fill: white; stroke: none"/><text x="83" y="153" class="net_127,128,129,130,131,132,133 width_7 busLabel_7">/7/</text><rect x="249" y="220" width="16" height="9" class="net_134,135,136,137,138,139,140 width_7 busLabel_7" style="fill: white; stroke: none"/><text x="248" y="228" class="net_134,135,136,137,138,139,140 width_7 busLabel_7">/7/</text><rect x="249" y="280" width="16" height="9" class="net_141,142,143,144,145,146,147 width_7 busLabel_7" style="fill: white; stroke: none"/><text x="248" y="288" class="net_141,142,143,144,145,146,147 width_7 busLabel_7">/7/</text><rect x="772" y="222" width="16" height="9" class="net_148,149,150,151,152,153,154,155,156 width_9 busLabel_9" style="fill: white; stroke: none"/><text x="771" y="230" class="net_148,149,150,151,152,153,154,155,156 width_9 busLabel_9">/9/</text><rect x="772" y="287" width="16" height="9" class="net_27,28,29,30,31,32,33,34,35 width_9 busLabel_9" style="fill: white; stroke: none"/><text x="771" y="295" class="net_27,28,29,30,31,32,33,34,35 width_9 busLabel_9">/9/</text><rect x="999.5" y="482" width="16" height="9" class="net_17,18 width_2 busLabel_2" style="fill: white; stroke: none"/><text x="998.5" y="490" class="net_17,18 width_2 busLabel_2">/2/</text><rect x="896.5" y="277" width="16" height="9" class="net_17,18,16,15,14,13,12,11,10 width_9 busLabel_9" style="fill: white; stroke: none"/><text x="895.5" y="285" class="net_17,18,16,15,14,13,12,11,10 width_9 busLabel_9">/9/</text></svg>