<svg xmlns="http://www.w3.org/2000/svg" xmlns:xlink="http://www.w3.org/1999/xlink" xmlns:s="https://github.com/nturley/netlistsvg" width="702" height="1425"><style>svg {
  stroke:#000;
  fill:none;
}
text {
  fill:#000;
  stroke:none;
  font-size:10px;
  font-weight: bold;
  font-family: "Courier New", monospace;
}
line {
    stroke-linecap: round;
}
.nodelabel {
  text-anchor: middle;
}
.inputPortLabel {
  text-anchor: end;
}
.splitjoinBody {
  fill:#000;
}</style><g s:type="generic" transform="translate(228,869.5)" s:width="30" s:height="40" id="cell_$auto$ff.cc:266:slice$59"><text x="15" y="-4" class="nodelabel cell_$auto$ff.cc:266:slice$59" s:attribute="ref">$sdff-bus</text><rect width="30" height="60" s:generic="body" fill="#ffae46" rx="0" class="cell_$auto$ff.cc:266:slice$59"/><g transform="translate(0,10)" s:x="0" s:y="10" s:pid="in0" id="port_$auto$ff.cc:266:slice$59~CLK"><text x="-3" y="-4" class="inputPortLabel cell_$auto$ff.cc:266:slice$59">CLK</text></g><g transform="translate(0,30)" s:x="0" s:y="10" s:pid="in0" id="port_$auto$ff.cc:266:slice$59~D"><text x="-3" y="-4" class="inputPortLabel cell_$auto$ff.cc:266:slice$59">D</text></g><g transform="translate(0,50)" s:x="0" s:y="10" s:pid="in0" id="port_$auto$ff.cc:266:slice$59~SRST"><text x="-3" y="-4" class="inputPortLabel cell_$auto$ff.cc:266:slice$59">SRST</text></g><g transform="translate(30,10)" s:x="30" s:y="10" s:pid="out0" id="port_$auto$ff.cc:266:slice$59~Q"><text x="5" y="-4" style="fill:#000; stroke:none" class="cell_$auto$ff.cc:266:slice$59">Q</text></g></g><g s:type="generic" transform="translate(433,778)" s:width="30" s:height="40" id="cell_$auto$ff.cc:266:slice$60"><text x="15" y="-4" class="nodelabel cell_$auto$ff.cc:266:slice$60" s:attribute="ref">$sdff</text><rect width="30" height="60" s:generic="body" fill="#ffae46" rx="0" class="cell_$auto$ff.cc:266:slice$60"/><g transform="translate(0,10)" s:x="0" s:y="10" s:pid="in0" id="port_$auto$ff.cc:266:slice$60~CLK"><text x="-3" y="-4" class="inputPortLabel cell_$auto$ff.cc:266:slice$60">CLK</text></g><g transform="translate(0,30)" s:x="0" s:y="10" s:pid="in0" id="port_$auto$ff.cc:266:slice$60~D"><text x="-3" y="-4" class="inputPortLabel cell_$auto$ff.cc:266:slice$60">D</text></g><g transform="translate(0,50)" s:x="0" s:y="10" s:pid="in0" id="port_$auto$ff.cc:266:slice$60~SRST"><text x="-3" y="-4" class="inputPortLabel cell_$auto$ff.cc:266:slice$60">SRST</text></g><g transform="translate(30,10)" s:x="30" s:y="10" s:pid="out0" id="port_$auto$ff.cc:266:slice$60~Q"><text x="5" y="-4" style="fill:#000; stroke:none" class="cell_$auto$ff.cc:266:slice$60">Q</text></g></g><g s:type="generic" transform="translate(433,238)" s:width="30" s:height="40" id="cell_$auto$ff.cc:266:slice$61"><text x="15" y="-4" class="nodelabel cell_$auto$ff.cc:266:slice$61" s:attribute="ref">$sdff</text><rect width="30" height="60" s:generic="body" fill="#ffae46" rx="0" class="cell_$auto$ff.cc:266:slice$61"/><g transform="translate(0,10)" s:x="0" s:y="10" s:pid="in0" id="port_$auto$ff.cc:266:slice$61~CLK"><text x="-3" y="-4" class="inputPortLabel cell_$auto$ff.cc:266:slice$61">CLK</text></g><g transform="translate(0,30)" s:x="0" s:y="10" s:pid="in0" id="port_$auto$ff.cc:266:slice$61~D"><text x="-3" y="-4" class="inputPortLabel cell_$auto$ff.cc:266:slice$61">D</text></g><g transform="translate(0,50)" s:x="0" s:y="10" s:pid="in0" id="port_$auto$ff.cc:266:slice$61~SRST"><text x="-3" y="-4" class="inputPortLabel cell_$auto$ff.cc:266:slice$61">SRST</text></g><g transform="translate(30,10)" s:x="30" s:y="10" s:pid="out0" id="port_$auto$ff.cc:266:slice$61~Q"><text x="5" y="-4" style="fill:#000; stroke:none" class="cell_$auto$ff.cc:266:slice$61">Q</text></g></g><g s:type="generic" transform="translate(433,670)" s:width="30" s:height="40" id="cell_$auto$ff.cc:266:slice$62"><text x="15" y="-4" class="nodelabel cell_$auto$ff.cc:266:slice$62" s:attribute="ref">$sdff</text><rect width="30" height="60" s:generic="body" fill="#ffae46" rx="0" class="cell_$auto$ff.cc:266:slice$62"/><g transform="translate(0,10)" s:x="0" s:y="10" s:pid="in0" id="port_$auto$ff.cc:266:slice$62~CLK"><text x="-3" y="-4" class="inputPortLabel cell_$auto$ff.cc:266:slice$62">CLK</text></g><g transform="translate(0,30)" s:x="0" s:y="10" s:pid="in0" id="port_$auto$ff.cc:266:slice$62~D"><text x="-3" y="-4" class="inputPortLabel cell_$auto$ff.cc:266:slice$62">D</text></g><g transform="translate(0,50)" s:x="0" s:y="10" s:pid="in0" id="port_$auto$ff.cc:266:slice$62~SRST"><text x="-3" y="-4" class="inputPortLabel cell_$auto$ff.cc:266:slice$62">SRST</text></g><g transform="translate(30,10)" s:x="30" s:y="10" s:pid="out0" id="port_$auto$ff.cc:266:slice$62~Q"><text x="5" y="-4" style="fill:#000; stroke:none" class="cell_$auto$ff.cc:266:slice$62">Q</text></g></g><g s:type="generic" transform="translate(433,1150.5)" s:width="30" s:height="40" id="cell_$auto$ff.cc:266:slice$63"><text x="15" y="-4" class="nodelabel cell_$auto$ff.cc:266:slice$63" s:attribute="ref">$sdff</text><rect width="30" height="60" s:generic="body" fill="#ffae46" rx="0" class="cell_$auto$ff.cc:266:slice$63"/><g transform="translate(0,10)" s:x="0" s:y="10" s:pid="in0" id="port_$auto$ff.cc:266:slice$63~CLK"><text x="-3" y="-4" class="inputPortLabel cell_$auto$ff.cc:266:slice$63">CLK</text></g><g transform="translate(0,30)" s:x="0" s:y="10" s:pid="in0" id="port_$auto$ff.cc:266:slice$63~D"><text x="-3" y="-4" class="inputPortLabel cell_$auto$ff.cc:266:slice$63">D</text></g><g transform="translate(0,50)" s:x="0" s:y="10" s:pid="in0" id="port_$auto$ff.cc:266:slice$63~SRST"><text x="-3" y="-4" class="inputPortLabel cell_$auto$ff.cc:266:slice$63">SRST</text></g><g transform="translate(30,10)" s:x="30" s:y="10" s:pid="out0" id="port_$auto$ff.cc:266:slice$63~Q"><text x="5" y="-4" style="fill:#000; stroke:none" class="cell_$auto$ff.cc:266:slice$63">Q</text></g></g><g s:type="generic" transform="translate(433,346)" s:width="30" s:height="40" id="cell_$auto$ff.cc:266:slice$64"><text x="15" y="-4" class="nodelabel cell_$auto$ff.cc:266:slice$64" s:attribute="ref">$sdff</text><rect width="30" height="60" s:generic="body" fill="#ffae46" rx="0" class="cell_$auto$ff.cc:266:slice$64"/><g transform="translate(0,10)" s:x="0" s:y="10" s:pid="in0" id="port_$auto$ff.cc:266:slice$64~CLK"><text x="-3" y="-4" class="inputPortLabel cell_$auto$ff.cc:266:slice$64">CLK</text></g><g transform="translate(0,30)" s:x="0" s:y="10" s:pid="in0" id="port_$auto$ff.cc:266:slice$64~D"><text x="-3" y="-4" class="inputPortLabel cell_$auto$ff.cc:266:slice$64">D</text></g><g transform="translate(0,50)" s:x="0" s:y="10" s:pid="in0" id="port_$auto$ff.cc:266:slice$64~SRST"><text x="-3" y="-4" class="inputPortLabel cell_$auto$ff.cc:266:slice$64">SRST</text></g><g transform="translate(30,10)" s:x="30" s:y="10" s:pid="out0" id="port_$auto$ff.cc:266:slice$64~Q"><text x="5" y="-4" style="fill:#000; stroke:none" class="cell_$auto$ff.cc:266:slice$64">Q</text></g></g><g s:type="generic" transform="translate(433,562)" s:width="30" s:height="40" id="cell_$auto$ff.cc:266:slice$65"><text x="15" y="-4" class="nodelabel cell_$auto$ff.cc:266:slice$65" s:attribute="ref">$sdff</text><rect width="30" height="60" s:generic="body" fill="#ffae46" rx="0" class="cell_$auto$ff.cc:266:slice$65"/><g transform="translate(0,10)" s:x="0" s:y="10" s:pid="in0" id="port_$auto$ff.cc:266:slice$65~CLK"><text x="-3" y="-4" class="inputPortLabel cell_$auto$ff.cc:266:slice$65">CLK</text></g><g transform="translate(0,30)" s:x="0" s:y="10" s:pid="in0" id="port_$auto$ff.cc:266:slice$65~D"><text x="-3" y="-4" class="inputPortLabel cell_$auto$ff.cc:266:slice$65">D</text></g><g transform="translate(0,50)" s:x="0" s:y="10" s:pid="in0" id="port_$auto$ff.cc:266:slice$65~SRST"><text x="-3" y="-4" class="inputPortLabel cell_$auto$ff.cc:266:slice$65">SRST</text></g><g transform="translate(30,10)" s:x="30" s:y="10" s:pid="out0" id="port_$auto$ff.cc:266:slice$65~Q"><text x="5" y="-4" style="fill:#000; stroke:none" class="cell_$auto$ff.cc:266:slice$65">Q</text></g></g><g s:type="generic" transform="translate(228,1085.5)" s:width="30" s:height="40" id="cell_$auto$ff.cc:266:slice$66"><text x="15" y="-4" class="nodelabel cell_$auto$ff.cc:266:slice$66" s:attribute="ref">$sdff-bus</text><rect width="30" height="60" s:generic="body" fill="#ffae46" rx="0" class="cell_$auto$ff.cc:266:slice$66"/><g transform="translate(0,10)" s:x="0" s:y="10" s:pid="in0" id="port_$auto$ff.cc:266:slice$66~CLK"><text x="-3" y="-4" class="inputPortLabel cell_$auto$ff.cc:266:slice$66">CLK</text></g><g transform="translate(0,30)" s:x="0" s:y="10" s:pid="in0" id="port_$auto$ff.cc:266:slice$66~D"><text x="-3" y="-4" class="inputPortLabel cell_$auto$ff.cc:266:slice$66">D</text></g><g transform="translate(0,50)" s:x="0" s:y="10" s:pid="in0" id="port_$auto$ff.cc:266:slice$66~SRST"><text x="-3" y="-4" class="inputPortLabel cell_$auto$ff.cc:266:slice$66">SRST</text></g><g transform="translate(30,10)" s:x="30" s:y="10" s:pid="out0" id="port_$auto$ff.cc:266:slice$66~Q"><text x="5" y="-4" style="fill:#000; stroke:none" class="cell_$auto$ff.cc:266:slice$66">Q</text></g></g><g s:type="generic" transform="translate(433,130)" s:width="30" s:height="40" id="cell_$auto$ff.cc:266:slice$67"><text x="15" y="-4" class="nodelabel cell_$auto$ff.cc:266:slice$67" s:attribute="ref">$sdff</text><rect width="30" height="60" s:generic="body" fill="#ffae46" rx="0" class="cell_$auto$ff.cc:266:slice$67"/><g transform="translate(0,10)" s:x="0" s:y="10" s:pid="in0" id="port_$auto$ff.cc:266:slice$67~CLK"><text x="-3" y="-4" class="inputPortLabel cell_$auto$ff.cc:266:slice$67">CLK</text></g><g transform="translate(0,30)" s:x="0" s:y="10" s:pid="in0" id="port_$auto$ff.cc:266:slice$67~D"><text x="-3" y="-4" class="inputPortLabel cell_$auto$ff.cc:266:slice$67">D</text></g><g transform="translate(0,50)" s:x="0" s:y="10" s:pid="in0" id="port_$auto$ff.cc:266:slice$67~SRST"><text x="-3" y="-4" class="inputPortLabel cell_$auto$ff.cc:266:slice$67">SRST</text></g><g transform="translate(30,10)" s:x="30" s:y="10" s:pid="out0" id="port_$auto$ff.cc:266:slice$67~Q"><text x="5" y="-4" style="fill:#000; stroke:none" class="cell_$auto$ff.cc:266:slice$67">Q</text></g></g><g s:type="generic" transform="translate(433,22)" s:width="30" s:height="40" id="cell_$auto$ff.cc:266:slice$68"><text x="15" y="-4" class="nodelabel cell_$auto$ff.cc:266:slice$68" s:attribute="ref">$sdff</text><rect width="30" height="60" s:generic="body" fill="#ffae46" rx="0" class="cell_$auto$ff.cc:266:slice$68"/><g transform="translate(0,10)" s:x="0" s:y="10" s:pid="in0" id="port_$auto$ff.cc:266:slice$68~CLK"><text x="-3" y="-4" class="inputPortLabel cell_$auto$ff.cc:266:slice$68">CLK</text></g><g transform="translate(0,30)" s:x="0" s:y="10" s:pid="in0" id="port_$auto$ff.cc:266:slice$68~D"><text x="-3" y="-4" class="inputPortLabel cell_$auto$ff.cc:266:slice$68">D</text></g><g transform="translate(0,50)" s:x="0" s:y="10" s:pid="in0" id="port_$auto$ff.cc:266:slice$68~SRST"><text x="-3" y="-4" class="inputPortLabel cell_$auto$ff.cc:266:slice$68">SRST</text></g><g transform="translate(30,10)" s:x="30" s:y="10" s:pid="out0" id="port_$auto$ff.cc:266:slice$68~Q"><text x="5" y="-4" style="fill:#000; stroke:none" class="cell_$auto$ff.cc:266:slice$68">Q</text></g></g><g s:type="generic" transform="translate(433,454)" s:width="30" s:height="40" id="cell_$auto$ff.cc:266:slice$69"><text x="15" y="-4" class="nodelabel cell_$auto$ff.cc:266:slice$69" s:attribute="ref">$sdff</text><rect width="30" height="60" s:generic="body" fill="#ffae46" rx="0" class="cell_$auto$ff.cc:266:slice$69"/><g transform="translate(0,10)" s:x="0" s:y="10" s:pid="in0" id="port_$auto$ff.cc:266:slice$69~CLK"><text x="-3" y="-4" class="inputPortLabel cell_$auto$ff.cc:266:slice$69">CLK</text></g><g transform="translate(0,30)" s:x="0" s:y="10" s:pid="in0" id="port_$auto$ff.cc:266:slice$69~D"><text x="-3" y="-4" class="inputPortLabel cell_$auto$ff.cc:266:slice$69">D</text></g><g transform="translate(0,50)" s:x="0" s:y="10" s:pid="in0" id="port_$auto$ff.cc:266:slice$69~SRST"><text x="-3" y="-4" class="inputPortLabel cell_$auto$ff.cc:266:slice$69">SRST</text></g><g transform="translate(30,10)" s:x="30" s:y="10" s:pid="out0" id="port_$auto$ff.cc:266:slice$69~Q"><text x="5" y="-4" style="fill:#000; stroke:none" class="cell_$auto$ff.cc:266:slice$69">Q</text></g></g><g s:type="generic" transform="translate(228,1242)" s:width="30" s:height="40" id="cell_$auto$ff.cc:266:slice$70"><text x="15" y="-4" class="nodelabel cell_$auto$ff.cc:266:slice$70" s:attribute="ref">$sdff-bus</text><rect width="30" height="60" s:generic="body" fill="#ffae46" rx="0" class="cell_$auto$ff.cc:266:slice$70"/><g transform="translate(0,10)" s:x="0" s:y="10" s:pid="in0" id="port_$auto$ff.cc:266:slice$70~CLK"><text x="-3" y="-4" class="inputPortLabel cell_$auto$ff.cc:266:slice$70">CLK</text></g><g transform="translate(0,30)" s:x="0" s:y="10" s:pid="in0" id="port_$auto$ff.cc:266:slice$70~D"><text x="-3" y="-4" class="inputPortLabel cell_$auto$ff.cc:266:slice$70">D</text></g><g transform="translate(0,50)" s:x="0" s:y="10" s:pid="in0" id="port_$auto$ff.cc:266:slice$70~SRST"><text x="-3" y="-4" class="inputPortLabel cell_$auto$ff.cc:266:slice$70">SRST</text></g><g transform="translate(30,10)" s:x="30" s:y="10" s:pid="out0" id="port_$auto$ff.cc:266:slice$70~Q"><text x="5" y="-4" style="fill:#000; stroke:none" class="cell_$auto$ff.cc:266:slice$70">Q</text></g></g><g s:type="generic" transform="translate(228,1350)" s:width="30" s:height="40" id="cell_$auto$ff.cc:266:slice$71"><text x="15" y="-4" class="nodelabel cell_$auto$ff.cc:266:slice$71" s:attribute="ref">$sdff-bus</text><rect width="30" height="60" s:generic="body" fill="#ffae46" rx="0" class="cell_$auto$ff.cc:266:slice$71"/><g transform="translate(0,10)" s:x="0" s:y="10" s:pid="in0" id="port_$auto$ff.cc:266:slice$71~CLK"><text x="-3" y="-4" class="inputPortLabel cell_$auto$ff.cc:266:slice$71">CLK</text></g><g transform="translate(0,30)" s:x="0" s:y="10" s:pid="in0" id="port_$auto$ff.cc:266:slice$71~D"><text x="-3" y="-4" class="inputPortLabel cell_$auto$ff.cc:266:slice$71">D</text></g><g transform="translate(0,50)" s:x="0" s:y="10" s:pid="in0" id="port_$auto$ff.cc:266:slice$71~SRST"><text x="-3" y="-4" class="inputPortLabel cell_$auto$ff.cc:266:slice$71">SRST</text></g><g transform="translate(30,10)" s:x="30" s:y="10" s:pid="out0" id="port_$auto$ff.cc:266:slice$71~Q"><text x="5" y="-4" style="fill:#000; stroke:none" class="cell_$auto$ff.cc:266:slice$71">Q</text></g></g><g s:type="generic" transform="translate(228,977.5)" s:width="30" s:height="40" id="cell_$auto$ff.cc:266:slice$72"><text x="15" y="-4" class="nodelabel cell_$auto$ff.cc:266:slice$72" s:attribute="ref">$sdff-bus</text><rect width="30" height="60" s:generic="body" fill="#ffae46" rx="0" class="cell_$auto$ff.cc:266:slice$72"/><g transform="translate(0,10)" s:x="0" s:y="10" s:pid="in0" id="port_$auto$ff.cc:266:slice$72~CLK"><text x="-3" y="-4" class="inputPortLabel cell_$auto$ff.cc:266:slice$72">CLK</text></g><g transform="translate(0,30)" s:x="0" s:y="10" s:pid="in0" id="port_$auto$ff.cc:266:slice$72~D"><text x="-3" y="-4" class="inputPortLabel cell_$auto$ff.cc:266:slice$72">D</text></g><g transform="translate(0,50)" s:x="0" s:y="10" s:pid="in0" id="port_$auto$ff.cc:266:slice$72~SRST"><text x="-3" y="-4" class="inputPortLabel cell_$auto$ff.cc:266:slice$72">SRST</text></g><g transform="translate(30,10)" s:x="30" s:y="10" s:pid="out0" id="port_$auto$ff.cc:266:slice$72~Q"><text x="5" y="-4" style="fill:#000; stroke:none" class="cell_$auto$ff.cc:266:slice$72">Q</text></g></g><g s:type="inputExt" transform="translate(119,670.5)" s:width="30" s:height="20" id="cell_clk"><text x="15" y="-4" class="nodelabel cell_clk" s:attribute="ref">clk</text><s:alias val="$_inputExt_"/><path d="M0,0 L0,20 L15,20 L30,10 L15,0 Z" fill="#8bcaff" class="cell_clk"/><g s:x="30" s:y="10" s:pid="Y"/></g><g s:type="inputExt" transform="translate(119,735.5)" s:width="30" s:height="20" id="cell_MEMflush"><text x="15" y="-4" class="nodelabel cell_MEMflush" s:attribute="ref">MEMflush</text><s:alias val="$_inputExt_"/><path d="M0,0 L0,20 L15,20 L30,10 L15,0 Z" fill="#8bcaff" class="cell_MEMflush"/><g s:x="30" s:y="10" s:pid="Y"/></g><g s:type="inputExt" transform="translate(228,809.5)" s:width="30" s:height="20" id="cell_EX_MemtoReg"><text x="15" y="-4" class="nodelabel cell_EX_MemtoReg" s:attribute="ref">EX_MemtoReg</text><s:alias val="$_inputExt_"/><path d="M0,0 L0,20 L15,20 L30,10 L15,0 Z" fill="#8bcaff" class="cell_EX_MemtoReg"/><g s:x="30" s:y="10" s:pid="Y"/></g><g s:type="inputExt" transform="translate(228,269.5)" s:width="30" s:height="20" id="cell_EX_RegWrite"><text x="15" y="-4" class="nodelabel cell_EX_RegWrite" s:attribute="ref">EX_RegWrite</text><s:alias val="$_inputExt_"/><path d="M0,0 L0,20 L15,20 L30,10 L15,0 Z" fill="#8bcaff" class="cell_EX_RegWrite"/><g s:x="30" s:y="10" s:pid="Y"/></g><g s:type="inputExt" transform="translate(228,701.5)" s:width="30" s:height="20" id="cell_EX_MemRead"><text x="15" y="-4" class="nodelabel cell_EX_MemRead" s:attribute="ref">EX_MemRead</text><s:alias val="$_inputExt_"/><path d="M0,0 L0,20 L15,20 L30,10 L15,0 Z" fill="#8bcaff" class="cell_EX_MemRead"/><g s:x="30" s:y="10" s:pid="Y"/></g><g s:type="inputExt" transform="translate(228,1182)" s:width="30" s:height="20" id="cell_EX_MemWrite"><text x="15" y="-4" class="nodelabel cell_EX_MemWrite" s:attribute="ref">EX_MemWrite</text><s:alias val="$_inputExt_"/><path d="M0,0 L0,20 L15,20 L30,10 L15,0 Z" fill="#8bcaff" class="cell_EX_MemWrite"/><g s:x="30" s:y="10" s:pid="Y"/></g><g s:type="inputExt" transform="translate(228,377.5)" s:width="30" s:height="20" id="cell_EX_Branch"><text x="15" y="-4" class="nodelabel cell_EX_Branch" s:attribute="ref">EX_Branch</text><s:alias val="$_inputExt_"/><path d="M0,0 L0,20 L15,20 L30,10 L15,0 Z" fill="#8bcaff" class="cell_EX_Branch"/><g s:x="30" s:y="10" s:pid="Y"/></g><g s:type="inputExt" transform="translate(228,593.5)" s:width="30" s:height="20" id="cell_EX_Jump"><text x="15" y="-4" class="nodelabel cell_EX_Jump" s:attribute="ref">EX_Jump</text><s:alias val="$_inputExt_"/><path d="M0,0 L0,20 L15,20 L30,10 L15,0 Z" fill="#8bcaff" class="cell_EX_Jump"/><g s:x="30" s:y="10" s:pid="Y"/></g><g s:type="inputExt" transform="translate(12,1106)" s:width="30" s:height="20" id="cell_EX_PCSum"><text x="15" y="-4" class="nodelabel cell_EX_PCSum" s:attribute="ref">EX_PCSum</text><s:alias val="$_inputExt_"/><path d="M0,0 L0,20 L15,20 L30,10 L15,0 Z" fill="#8bcaff" class="cell_EX_PCSum"/><g s:x="30" s:y="10" s:pid="Y"/></g><g s:type="inputExt" transform="translate(228,161.5)" s:width="30" s:height="20" id="cell_EX_zero"><text x="15" y="-4" class="nodelabel cell_EX_zero" s:attribute="ref">EX_zero</text><s:alias val="$_inputExt_"/><path d="M0,0 L0,20 L15,20 L30,10 L15,0 Z" fill="#8bcaff" class="cell_EX_zero"/><g s:x="30" s:y="10" s:pid="Y"/></g><g s:type="inputExt" transform="translate(228,53.5)" s:width="30" s:height="20" id="cell_EX_s_less"><text x="15" y="-4" class="nodelabel cell_EX_s_less" s:attribute="ref">EX_s_less</text><s:alias val="$_inputExt_"/><path d="M0,0 L0,20 L15,20 L30,10 L15,0 Z" fill="#8bcaff" class="cell_EX_s_less"/><g s:x="30" s:y="10" s:pid="Y"/></g><g s:type="inputExt" transform="translate(228,485.5)" s:width="30" s:height="20" id="cell_EX_u_less"><text x="15" y="-4" class="nodelabel cell_EX_u_less" s:attribute="ref">EX_u_less</text><s:alias val="$_inputExt_"/><path d="M0,0 L0,20 L15,20 L30,10 L15,0 Z" fill="#8bcaff" class="cell_EX_u_less"/><g s:x="30" s:y="10" s:pid="Y"/></g><g s:type="inputExt" transform="translate(12,1262.5)" s:width="30" s:height="20" id="cell_EX_ALUresult"><text x="15" y="-4" class="nodelabel cell_EX_ALUresult" s:attribute="ref">EX_ALUresult</text><s:alias val="$_inputExt_"/><path d="M0,0 L0,20 L15,20 L30,10 L15,0 Z" fill="#8bcaff" class="cell_EX_ALUresult"/><g s:x="30" s:y="10" s:pid="Y"/></g><g s:type="inputExt" transform="translate(12,1370.5)" s:width="30" s:height="20" id="cell_EX_RegData2"><text x="15" y="-4" class="nodelabel cell_EX_RegData2" s:attribute="ref">EX_RegData2</text><s:alias val="$_inputExt_"/><path d="M0,0 L0,20 L15,20 L30,10 L15,0 Z" fill="#8bcaff" class="cell_EX_RegData2"/><g s:x="30" s:y="10" s:pid="Y"/></g><g s:type="inputExt" transform="translate(12,998)" s:width="30" s:height="20" id="cell_EX_funct3"><text x="15" y="-4" class="nodelabel cell_EX_funct3" s:attribute="ref">EX_funct3</text><s:alias val="$_inputExt_"/><path d="M0,0 L0,20 L15,20 L30,10 L15,0 Z" fill="#8bcaff" class="cell_EX_funct3"/><g s:x="30" s:y="10" s:pid="Y"/></g><g s:type="inputExt" transform="translate(12,890)" s:width="30" s:height="20" id="cell_EX_rdReg"><text x="15" y="-4" class="nodelabel cell_EX_rdReg" s:attribute="ref">EX_rdReg</text><s:alias val="$_inputExt_"/><path d="M0,0 L0,20 L15,20 L30,10 L15,0 Z" fill="#8bcaff" class="cell_EX_rdReg"/><g s:x="30" s:y="10" s:pid="Y"/></g><g s:type="outputExt" transform="translate(612,778.5)" s:width="30" s:height="20" id="cell_MEM_MemtoReg"><text x="15" y="-4" class="nodelabel cell_MEM_MemtoReg" s:attribute="ref">MEM_MemtoReg</text><s:alias val="$_outputExt_"/><path d="M30,0 L30,20 L15,20 L0,10 L15,0 Z" fill="#169300" class="cell_MEM_MemtoReg"/><g s:x="0" s:y="10" s:pid="A"/></g><g s:type="outputExt" transform="translate(612,238.5)" s:width="30" s:height="20" id="cell_MEM_RegWrite"><text x="15" y="-4" class="nodelabel cell_MEM_RegWrite" s:attribute="ref">MEM_RegWrite</text><s:alias val="$_outputExt_"/><path d="M30,0 L30,20 L15,20 L0,10 L15,0 Z" fill="#169300" class="cell_MEM_RegWrite"/><g s:x="0" s:y="10" s:pid="A"/></g><g s:type="outputExt" transform="translate(612,670.5)" s:width="30" s:height="20" id="cell_MEM_MemRead"><text x="15" y="-4" class="nodelabel cell_MEM_MemRead" s:attribute="ref">MEM_MemRead</text><s:alias val="$_outputExt_"/><path d="M30,0 L30,20 L15,20 L0,10 L15,0 Z" fill="#169300" class="cell_MEM_MemRead"/><g s:x="0" s:y="10" s:pid="A"/></g><g s:type="outputExt" transform="translate(612,1151)" s:width="30" s:height="20" id="cell_MEM_MemWrite"><text x="15" y="-4" class="nodelabel cell_MEM_MemWrite" s:attribute="ref">MEM_MemWrite</text><s:alias val="$_outputExt_"/><path d="M30,0 L30,20 L15,20 L0,10 L15,0 Z" fill="#169300" class="cell_MEM_MemWrite"/><g s:x="0" s:y="10" s:pid="A"/></g><g s:type="outputExt" transform="translate(612,346.5)" s:width="30" s:height="20" id="cell_MEM_Branch"><text x="15" y="-4" class="nodelabel cell_MEM_Branch" s:attribute="ref">MEM_Branch</text><s:alias val="$_outputExt_"/><path d="M30,0 L30,20 L15,20 L0,10 L15,0 Z" fill="#169300" class="cell_MEM_Branch"/><g s:x="0" s:y="10" s:pid="A"/></g><g s:type="outputExt" transform="translate(612,562.5)" s:width="30" s:height="20" id="cell_MEM_Jump"><text x="15" y="-4" class="nodelabel cell_MEM_Jump" s:attribute="ref">MEM_Jump</text><s:alias val="$_outputExt_"/><path d="M30,0 L30,20 L15,20 L0,10 L15,0 Z" fill="#169300" class="cell_MEM_Jump"/><g s:x="0" s:y="10" s:pid="A"/></g><g s:type="outputExt" transform="translate(612,1086)" s:width="30" s:height="20" id="cell_MEM_PCSum"><text x="15" y="-4" class="nodelabel cell_MEM_PCSum" s:attribute="ref">MEM_PCSum</text><s:alias val="$_outputExt_"/><path d="M30,0 L30,20 L15,20 L0,10 L15,0 Z" fill="#169300" class="cell_MEM_PCSum"/><g s:x="0" s:y="10" s:pid="A"/></g><g s:type="outputExt" transform="translate(612,130.5)" s:width="30" s:height="20" id="cell_MEM_zero"><text x="15" y="-4" class="nodelabel cell_MEM_zero" s:attribute="ref">MEM_zero</text><s:alias val="$_outputExt_"/><path d="M30,0 L30,20 L15,20 L0,10 L15,0 Z" fill="#169300" class="cell_MEM_zero"/><g s:x="0" s:y="10" s:pid="A"/></g><g s:type="outputExt" transform="translate(612,22.5)" s:width="30" s:height="20" id="cell_MEM_s_less"><text x="15" y="-4" class="nodelabel cell_MEM_s_less" s:attribute="ref">MEM_s_less</text><s:alias val="$_outputExt_"/><path d="M30,0 L30,20 L15,20 L0,10 L15,0 Z" fill="#169300" class="cell_MEM_s_less"/><g s:x="0" s:y="10" s:pid="A"/></g><g s:type="outputExt" transform="translate(612,454.5)" s:width="30" s:height="20" id="cell_MEM_u_less"><text x="15" y="-4" class="nodelabel cell_MEM_u_less" s:attribute="ref">MEM_u_less</text><s:alias val="$_outputExt_"/><path d="M30,0 L30,20 L15,20 L0,10 L15,0 Z" fill="#169300" class="cell_MEM_u_less"/><g s:x="0" s:y="10" s:pid="A"/></g><g s:type="outputExt" transform="translate(612,1242.5)" s:width="30" s:height="20" id="cell_MEM_ALUresult"><text x="15" y="-4" class="nodelabel cell_MEM_ALUresult" s:attribute="ref">MEM_ALUresult</text><s:alias val="$_outputExt_"/><path d="M30,0 L30,20 L15,20 L0,10 L15,0 Z" fill="#169300" class="cell_MEM_ALUresult"/><g s:x="0" s:y="10" s:pid="A"/></g><g s:type="outputExt" transform="translate(612,1350.5)" s:width="30" s:height="20" id="cell_MEM_RegData2"><text x="15" y="-4" class="nodelabel cell_MEM_RegData2" s:attribute="ref">MEM_RegData2</text><s:alias val="$_outputExt_"/><path d="M30,0 L30,20 L15,20 L0,10 L15,0 Z" fill="#169300" class="cell_MEM_RegData2"/><g s:x="0" s:y="10" s:pid="A"/></g><g s:type="outputExt" transform="translate(612,978)" s:width="30" s:height="20" id="cell_MEM_funct3"><text x="15" y="-4" class="nodelabel cell_MEM_funct3" s:attribute="ref">MEM_funct3</text><s:alias val="$_outputExt_"/><path d="M30,0 L30,20 L15,20 L0,10 L15,0 Z" fill="#169300" class="cell_MEM_funct3"/><g s:x="0" s:y="10" s:pid="A"/></g><g s:type="outputExt" transform="translate(612,870)" s:width="30" s:height="20" id="cell_MEM_rdReg"><text x="15" y="-4" class="nodelabel cell_MEM_rdReg" s:attribute="ref">MEM_rdReg</text><s:alias val="$_outputExt_"/><path d="M30,0 L30,20 L15,20 L0,10 L15,0 Z" fill="#169300" class="cell_MEM_rdReg"/><g s:x="0" s:y="10" s:pid="A"/></g><line x1="149" x2="187" y1="680.5" y2="680.5" class="net_2 width_1" style="stroke-width: 1"/><line x1="187" x2="187" y1="680.5" y2="880" class="net_2 width_1" style="stroke-width: 1"/><circle cx="187" cy="680.5" r="2" style="fill:#000" class="net_2 width_1"/><circle cx="187" cy="880" r="2" style="fill:#000" class="net_2 width_1"/><line x1="187" x2="228" y1="880" y2="880" class="net_2 width_1" style="stroke-width: 1"/><line x1="149" x2="187" y1="680.5" y2="680.5" class="net_2 width_1" style="stroke-width: 1"/><line x1="187" x2="187" y1="680.5" y2="788.5" class="net_2 width_1" style="stroke-width: 1"/><circle cx="187" cy="788.5" r="2" style="fill:#000" class="net_2 width_1"/><line x1="187" x2="433" y1="788.5" y2="788.5" class="net_2 width_1" style="stroke-width: 1"/><line x1="149" x2="187" y1="680.5" y2="680.5" class="net_2 width_1" style="stroke-width: 1"/><line x1="187" x2="187" y1="680.5" y2="248.5" class="net_2 width_1" style="stroke-width: 1"/><circle cx="187" cy="248.5" r="2" style="fill:#000" class="net_2 width_1"/><line x1="187" x2="433" y1="248.5" y2="248.5" class="net_2 width_1" style="stroke-width: 1"/><line x1="149" x2="433" y1="680.5" y2="680.5" class="net_2 width_1" style="stroke-width: 1"/><line x1="149" x2="187" y1="680.5" y2="680.5" class="net_2 width_1" style="stroke-width: 1"/><line x1="187" x2="187" y1="680.5" y2="1161" class="net_2 width_1" style="stroke-width: 1"/><circle cx="187" cy="1161" r="2" style="fill:#000" class="net_2 width_1"/><line x1="187" x2="433" y1="1161" y2="1161" class="net_2 width_1" style="stroke-width: 1"/><line x1="149" x2="187" y1="680.5" y2="680.5" class="net_2 width_1" style="stroke-width: 1"/><line x1="187" x2="187" y1="680.5" y2="356.5" class="net_2 width_1" style="stroke-width: 1"/><circle cx="187" cy="356.5" r="2" style="fill:#000" class="net_2 width_1"/><line x1="187" x2="433" y1="356.5" y2="356.5" class="net_2 width_1" style="stroke-width: 1"/><line x1="149" x2="187" y1="680.5" y2="680.5" class="net_2 width_1" style="stroke-width: 1"/><line x1="187" x2="187" y1="680.5" y2="572.5" class="net_2 width_1" style="stroke-width: 1"/><circle cx="187" cy="572.5" r="2" style="fill:#000" class="net_2 width_1"/><line x1="187" x2="433" y1="572.5" y2="572.5" class="net_2 width_1" style="stroke-width: 1"/><line x1="149" x2="187" y1="680.5" y2="680.5" class="net_2 width_1" style="stroke-width: 1"/><line x1="187" x2="187" y1="680.5" y2="1096" class="net_2 width_1" style="stroke-width: 1"/><circle cx="187" cy="1096" r="2" style="fill:#000" class="net_2 width_1"/><line x1="187" x2="228" y1="1096" y2="1096" class="net_2 width_1" style="stroke-width: 1"/><line x1="149" x2="187" y1="680.5" y2="680.5" class="net_2 width_1" style="stroke-width: 1"/><line x1="187" x2="187" y1="680.5" y2="140.5" class="net_2 width_1" style="stroke-width: 1"/><circle cx="187" cy="140.5" r="2" style="fill:#000" class="net_2 width_1"/><line x1="187" x2="433" y1="140.5" y2="140.5" class="net_2 width_1" style="stroke-width: 1"/><line x1="149" x2="187" y1="680.5" y2="680.5" class="net_2 width_1" style="stroke-width: 1"/><line x1="187" x2="187" y1="680.5" y2="32.5" class="net_2 width_1" style="stroke-width: 1"/><line x1="187" x2="433" y1="32.5" y2="32.5" class="net_2 width_1" style="stroke-width: 1"/><line x1="149" x2="187" y1="680.5" y2="680.5" class="net_2 width_1" style="stroke-width: 1"/><line x1="187" x2="187" y1="680.5" y2="464.5" class="net_2 width_1" style="stroke-width: 1"/><circle cx="187" cy="464.5" r="2" style="fill:#000" class="net_2 width_1"/><line x1="187" x2="433" y1="464.5" y2="464.5" class="net_2 width_1" style="stroke-width: 1"/><line x1="149" x2="187" y1="680.5" y2="680.5" class="net_2 width_1" style="stroke-width: 1"/><line x1="187" x2="187" y1="680.5" y2="1252.5" class="net_2 width_1" style="stroke-width: 1"/><circle cx="187" cy="1252.5" r="2" style="fill:#000" class="net_2 width_1"/><line x1="187" x2="228" y1="1252.5" y2="1252.5" class="net_2 width_1" style="stroke-width: 1"/><line x1="149" x2="187" y1="680.5" y2="680.5" class="net_2 width_1" style="stroke-width: 1"/><line x1="187" x2="187" y1="680.5" y2="1360.5" class="net_2 width_1" style="stroke-width: 1"/><line x1="187" x2="228" y1="1360.5" y2="1360.5" class="net_2 width_1" style="stroke-width: 1"/><line x1="149" x2="187" y1="680.5" y2="680.5" class="net_2 width_1" style="stroke-width: 1"/><line x1="187" x2="187" y1="680.5" y2="988" class="net_2 width_1" style="stroke-width: 1"/><circle cx="187" cy="988" r="2" style="fill:#000" class="net_2 width_1"/><line x1="187" x2="228" y1="988" y2="988" class="net_2 width_1" style="stroke-width: 1"/><line x1="42" x2="227" y1="900" y2="900" class="net_208,209,210,211,212 width_5" style="stroke-width: 2"/><line x1="149" x2="177" y1="745.5" y2="745.5" class="net_3 width_1" style="stroke-width: 1"/><line x1="177" x2="177" y1="745.5" y2="920" class="net_3 width_1" style="stroke-width: 1"/><circle cx="177" cy="745.5" r="2" style="fill:#000" class="net_3 width_1"/><circle cx="177" cy="920" r="2" style="fill:#000" class="net_3 width_1"/><line x1="177" x2="227" y1="920" y2="920" class="net_3 width_1" style="stroke-width: 1"/><line x1="149" x2="177" y1="745.5" y2="745.5" class="net_3 width_1" style="stroke-width: 1"/><line x1="177" x2="177" y1="745.5" y2="839.5" class="net_3 width_1" style="stroke-width: 1"/><line x1="177" x2="382" y1="839.5" y2="839.5" class="net_3 width_1" style="stroke-width: 1"/><line x1="382" x2="382" y1="839.5" y2="828.5" class="net_3 width_1" style="stroke-width: 1"/><circle cx="177" cy="839.5" r="2" style="fill:#000" class="net_3 width_1"/><line x1="382" x2="432" y1="828.5" y2="828.5" class="net_3 width_1" style="stroke-width: 1"/><line x1="149" x2="177" y1="745.5" y2="745.5" class="net_3 width_1" style="stroke-width: 1"/><line x1="177" x2="177" y1="745.5" y2="299.5" class="net_3 width_1" style="stroke-width: 1"/><line x1="177" x2="382" y1="299.5" y2="299.5" class="net_3 width_1" style="stroke-width: 1"/><line x1="382" x2="382" y1="299.5" y2="288.5" class="net_3 width_1" style="stroke-width: 1"/><circle cx="177" cy="299.5" r="2" style="fill:#000" class="net_3 width_1"/><line x1="382" x2="432" y1="288.5" y2="288.5" class="net_3 width_1" style="stroke-width: 1"/><line x1="149" x2="382" y1="745.5" y2="745.5" class="net_3 width_1" style="stroke-width: 1"/><line x1="382" x2="382" y1="745.5" y2="720.5" class="net_3 width_1" style="stroke-width: 1"/><line x1="382" x2="432" y1="720.5" y2="720.5" class="net_3 width_1" style="stroke-width: 1"/><line x1="149" x2="177" y1="745.5" y2="745.5" class="net_3 width_1" style="stroke-width: 1"/><line x1="177" x2="177" y1="745.5" y2="1212" class="net_3 width_1" style="stroke-width: 1"/><line x1="177" x2="382" y1="1212" y2="1212" class="net_3 width_1" style="stroke-width: 1"/><line x1="382" x2="382" y1="1212" y2="1201" class="net_3 width_1" style="stroke-width: 1"/><circle cx="177" cy="1212" r="2" style="fill:#000" class="net_3 width_1"/><line x1="382" x2="432" y1="1201" y2="1201" class="net_3 width_1" style="stroke-width: 1"/><line x1="149" x2="177" y1="745.5" y2="745.5" class="net_3 width_1" style="stroke-width: 1"/><line x1="177" x2="177" y1="745.5" y2="407.5" class="net_3 width_1" style="stroke-width: 1"/><line x1="177" x2="382" y1="407.5" y2="407.5" class="net_3 width_1" style="stroke-width: 1"/><line x1="382" x2="382" y1="407.5" y2="396.5" class="net_3 width_1" style="stroke-width: 1"/><circle cx="177" cy="407.5" r="2" style="fill:#000" class="net_3 width_1"/><line x1="382" x2="432" y1="396.5" y2="396.5" class="net_3 width_1" style="stroke-width: 1"/><line x1="149" x2="177" y1="745.5" y2="745.5" class="net_3 width_1" style="stroke-width: 1"/><line x1="177" x2="177" y1="745.5" y2="623.5" class="net_3 width_1" style="stroke-width: 1"/><line x1="177" x2="382" y1="623.5" y2="623.5" class="net_3 width_1" style="stroke-width: 1"/><line x1="382" x2="382" y1="623.5" y2="612.5" class="net_3 width_1" style="stroke-width: 1"/><circle cx="177" cy="623.5" r="2" style="fill:#000" class="net_3 width_1"/><line x1="382" x2="432" y1="612.5" y2="612.5" class="net_3 width_1" style="stroke-width: 1"/><line x1="149" x2="177" y1="745.5" y2="745.5" class="net_3 width_1" style="stroke-width: 1"/><line x1="177" x2="177" y1="745.5" y2="1136" class="net_3 width_1" style="stroke-width: 1"/><circle cx="177" cy="1136" r="2" style="fill:#000" class="net_3 width_1"/><line x1="177" x2="227" y1="1136" y2="1136" class="net_3 width_1" style="stroke-width: 1"/><line x1="149" x2="177" y1="745.5" y2="745.5" class="net_3 width_1" style="stroke-width: 1"/><line x1="177" x2="177" y1="745.5" y2="191.5" class="net_3 width_1" style="stroke-width: 1"/><line x1="177" x2="382" y1="191.5" y2="191.5" class="net_3 width_1" style="stroke-width: 1"/><line x1="382" x2="382" y1="191.5" y2="180.5" class="net_3 width_1" style="stroke-width: 1"/><circle cx="177" cy="191.5" r="2" style="fill:#000" class="net_3 width_1"/><line x1="382" x2="432" y1="180.5" y2="180.5" class="net_3 width_1" style="stroke-width: 1"/><line x1="149" x2="177" y1="745.5" y2="745.5" class="net_3 width_1" style="stroke-width: 1"/><line x1="177" x2="177" y1="745.5" y2="83.5" class="net_3 width_1" style="stroke-width: 1"/><line x1="177" x2="382" y1="83.5" y2="83.5" class="net_3 width_1" style="stroke-width: 1"/><line x1="382" x2="382" y1="83.5" y2="72.5" class="net_3 width_1" style="stroke-width: 1"/><line x1="382" x2="432" y1="72.5" y2="72.5" class="net_3 width_1" style="stroke-width: 1"/><line x1="149" x2="177" y1="745.5" y2="745.5" class="net_3 width_1" style="stroke-width: 1"/><line x1="177" x2="177" y1="745.5" y2="515.5" class="net_3 width_1" style="stroke-width: 1"/><line x1="177" x2="382" y1="515.5" y2="515.5" class="net_3 width_1" style="stroke-width: 1"/><line x1="382" x2="382" y1="515.5" y2="504.5" class="net_3 width_1" style="stroke-width: 1"/><circle cx="177" cy="515.5" r="2" style="fill:#000" class="net_3 width_1"/><line x1="382" x2="432" y1="504.5" y2="504.5" class="net_3 width_1" style="stroke-width: 1"/><line x1="149" x2="177" y1="745.5" y2="745.5" class="net_3 width_1" style="stroke-width: 1"/><line x1="177" x2="177" y1="745.5" y2="1292.5" class="net_3 width_1" style="stroke-width: 1"/><circle cx="177" cy="1292.5" r="2" style="fill:#000" class="net_3 width_1"/><line x1="177" x2="227" y1="1292.5" y2="1292.5" class="net_3 width_1" style="stroke-width: 1"/><line x1="149" x2="177" y1="745.5" y2="745.5" class="net_3 width_1" style="stroke-width: 1"/><line x1="177" x2="177" y1="745.5" y2="1400.5" class="net_3 width_1" style="stroke-width: 1"/><line x1="177" x2="227" y1="1400.5" y2="1400.5" class="net_3 width_1" style="stroke-width: 1"/><line x1="149" x2="177" y1="745.5" y2="745.5" class="net_3 width_1" style="stroke-width: 1"/><line x1="177" x2="177" y1="745.5" y2="1028" class="net_3 width_1" style="stroke-width: 1"/><circle cx="177" cy="1028" r="2" style="fill:#000" class="net_3 width_1"/><line x1="177" x2="227" y1="1028" y2="1028" class="net_3 width_1" style="stroke-width: 1"/><line x1="258" x2="382" y1="819.5" y2="819.5" class="net_4 width_1" style="stroke-width: 1"/><line x1="382" x2="382" y1="819.5" y2="808.5" class="net_4 width_1" style="stroke-width: 1"/><line x1="382" x2="432" y1="808.5" y2="808.5" class="net_4 width_1" style="stroke-width: 1"/><line x1="258" x2="382" y1="279.5" y2="279.5" class="net_5 width_1" style="stroke-width: 1"/><line x1="382" x2="382" y1="279.5" y2="268.5" class="net_5 width_1" style="stroke-width: 1"/><line x1="382" x2="432" y1="268.5" y2="268.5" class="net_5 width_1" style="stroke-width: 1"/><line x1="258" x2="382" y1="711.5" y2="711.5" class="net_6 width_1" style="stroke-width: 1"/><line x1="382" x2="382" y1="711.5" y2="700.5" class="net_6 width_1" style="stroke-width: 1"/><line x1="382" x2="432" y1="700.5" y2="700.5" class="net_6 width_1" style="stroke-width: 1"/><line x1="258" x2="382" y1="1192" y2="1192" class="net_7 width_1" style="stroke-width: 1"/><line x1="382" x2="382" y1="1192" y2="1181" class="net_7 width_1" style="stroke-width: 1"/><line x1="382" x2="432" y1="1181" y2="1181" class="net_7 width_1" style="stroke-width: 1"/><line x1="258" x2="382" y1="387.5" y2="387.5" class="net_8 width_1" style="stroke-width: 1"/><line x1="382" x2="382" y1="387.5" y2="376.5" class="net_8 width_1" style="stroke-width: 1"/><line x1="382" x2="432" y1="376.5" y2="376.5" class="net_8 width_1" style="stroke-width: 1"/><line x1="258" x2="382" y1="603.5" y2="603.5" class="net_9 width_1" style="stroke-width: 1"/><line x1="382" x2="382" y1="603.5" y2="592.5" class="net_9 width_1" style="stroke-width: 1"/><line x1="382" x2="432" y1="592.5" y2="592.5" class="net_9 width_1" style="stroke-width: 1"/><line x1="42" x2="227" y1="1116" y2="1116" class="net_10,11,12,13,14,15,16,17,18,19,20,21,22,23,24,25,26,27,28,29,30,31,32,33,34,35,36,37,38,39,40,41,42,43,44,45,46,47,48,49,50,51,52,53,54,55,56,57,58,59,60,61,62,63,64,65,66,67,68,69,70,71,72,73 width_64" style="stroke-width: 2"/><line x1="258" x2="382" y1="171.5" y2="171.5" class="net_74 width_1" style="stroke-width: 1"/><line x1="382" x2="382" y1="171.5" y2="160.5" class="net_74 width_1" style="stroke-width: 1"/><line x1="382" x2="432" y1="160.5" y2="160.5" class="net_74 width_1" style="stroke-width: 1"/><line x1="258" x2="382" y1="63.5" y2="63.5" class="net_75 width_1" style="stroke-width: 1"/><line x1="382" x2="382" y1="63.5" y2="52.5" class="net_75 width_1" style="stroke-width: 1"/><line x1="382" x2="432" y1="52.5" y2="52.5" class="net_75 width_1" style="stroke-width: 1"/><line x1="258" x2="382" y1="495.5" y2="495.5" class="net_76 width_1" style="stroke-width: 1"/><line x1="382" x2="382" y1="495.5" y2="484.5" class="net_76 width_1" style="stroke-width: 1"/><line x1="382" x2="432" y1="484.5" y2="484.5" class="net_76 width_1" style="stroke-width: 1"/><line x1="42" x2="227" y1="1272.5" y2="1272.5" class="net_77,78,79,80,81,82,83,84,85,86,87,88,89,90,91,92,93,94,95,96,97,98,99,100,101,102,103,104,105,106,107,108,109,110,111,112,113,114,115,116,117,118,119,120,121,122,123,124,125,126,127,128,129,130,131,132,133,134,135,136,137,138,139,140 width_64" style="stroke-width: 2"/><line x1="42" x2="227" y1="1380.5" y2="1380.5" class="net_141,142,143,144,145,146,147,148,149,150,151,152,153,154,155,156,157,158,159,160,161,162,163,164,165,166,167,168,169,170,171,172,173,174,175,176,177,178,179,180,181,182,183,184,185,186,187,188,189,190,191,192,193,194,195,196,197,198,199,200,201,202,203,204 width_64" style="stroke-width: 2"/><line x1="42" x2="227" y1="1008" y2="1008" class="net_205,206,207 width_3" style="stroke-width: 2"/><line x1="464" x2="612" y1="788.5" y2="788.5" class="net_213 width_1" style="stroke-width: 1"/><line x1="464" x2="612" y1="248.5" y2="248.5" class="net_214 width_1" style="stroke-width: 1"/><line x1="464" x2="612" y1="680.5" y2="680.5" class="net_215 width_1" style="stroke-width: 1"/><line x1="464" x2="612" y1="1161" y2="1161" class="net_216 width_1" style="stroke-width: 1"/><line x1="464" x2="612" y1="356.5" y2="356.5" class="net_217 width_1" style="stroke-width: 1"/><line x1="464" x2="612" y1="572.5" y2="572.5" class="net_218 width_1" style="stroke-width: 1"/><line x1="259" x2="612" y1="1096" y2="1096" class="net_219,220,221,222,223,224,225,226,227,228,229,230,231,232,233,234,235,236,237,238,239,240,241,242,243,244,245,246,247,248,249,250,251,252,253,254,255,256,257,258,259,260,261,262,263,264,265,266,267,268,269,270,271,272,273,274,275,276,277,278,279,280,281,282 width_64" style="stroke-width: 2"/><line x1="464" x2="612" y1="140.5" y2="140.5" class="net_283 width_1" style="stroke-width: 1"/><line x1="464" x2="612" y1="32.5" y2="32.5" class="net_284 width_1" style="stroke-width: 1"/><line x1="464" x2="612" y1="464.5" y2="464.5" class="net_285 width_1" style="stroke-width: 1"/><line x1="259" x2="612" y1="1252.5" y2="1252.5" class="net_286,287,288,289,290,291,292,293,294,295,296,297,298,299,300,301,302,303,304,305,306,307,308,309,310,311,312,313,314,315,316,317,318,319,320,321,322,323,324,325,326,327,328,329,330,331,332,333,334,335,336,337,338,339,340,341,342,343,344,345,346,347,348,349 width_64" style="stroke-width: 2"/><line x1="259" x2="612" y1="1360.5" y2="1360.5" class="net_350,351,352,353,354,355,356,357,358,359,360,361,362,363,364,365,366,367,368,369,370,371,372,373,374,375,376,377,378,379,380,381,382,383,384,385,386,387,388,389,390,391,392,393,394,395,396,397,398,399,400,401,402,403,404,405,406,407,408,409,410,411,412,413 width_64" style="stroke-width: 2"/><line x1="259" x2="612" y1="988" y2="988" class="net_414,415,416 width_3" style="stroke-width: 2"/><line x1="259" x2="612" y1="880" y2="880" class="net_417,418,419,420,421 width_5" style="stroke-width: 2"/><rect x="142" y="895" width="16" height="9" class="net_208,209,210,211,212 width_5 busLabel_5" style="fill: white; stroke: none"/><text x="141" y="903" class="net_208,209,210,211,212 width_5 busLabel_5">/5/</text><rect x="142" y="1111" width="22" height="9" class="net_10,11,12,13,14,15,16,17,18,19,20,21,22,23,24,25,26,27,28,29,30,31,32,33,34,35,36,37,38,39,40,41,42,43,44,45,46,47,48,49,50,51,52,53,54,55,56,57,58,59,60,61,62,63,64,65,66,67,68,69,70,71,72,73 width_64 busLabel_64" style="fill: white; stroke: none"/><text x="141" y="1119" class="net_10,11,12,13,14,15,16,17,18,19,20,21,22,23,24,25,26,27,28,29,30,31,32,33,34,35,36,37,38,39,40,41,42,43,44,45,46,47,48,49,50,51,52,53,54,55,56,57,58,59,60,61,62,63,64,65,66,67,68,69,70,71,72,73 width_64 busLabel_64">/64/</text><rect x="142" y="1267.5" width="22" height="9" class="net_77,78,79,80,81,82,83,84,85,86,87,88,89,90,91,92,93,94,95,96,97,98,99,100,101,102,103,104,105,106,107,108,109,110,111,112,113,114,115,116,117,118,119,120,121,122,123,124,125,126,127,128,129,130,131,132,133,134,135,136,137,138,139,140 width_64 busLabel_64" style="fill: white; stroke: none"/><text x="141" y="1275.5" class="net_77,78,79,80,81,82,83,84,85,86,87,88,89,90,91,92,93,94,95,96,97,98,99,100,101,102,103,104,105,106,107,108,109,110,111,112,113,114,115,116,117,118,119,120,121,122,123,124,125,126,127,128,129,130,131,132,133,134,135,136,137,138,139,140 width_64 busLabel_64">/64/</text><rect x="142" y="1375.5" width="22" height="9" class="net_141,142,143,144,145,146,147,148,149,150,151,152,153,154,155,156,157,158,159,160,161,162,163,164,165,166,167,168,169,170,171,172,173,174,175,176,177,178,179,180,181,182,183,184,185,186,187,188,189,190,191,192,193,194,195,196,197,198,199,200,201,202,203,204 width_64 busLabel_64" style="fill: white; stroke: none"/><text x="141" y="1383.5" class="net_141,142,143,144,145,146,147,148,149,150,151,152,153,154,155,156,157,158,159,160,161,162,163,164,165,166,167,168,169,170,171,172,173,174,175,176,177,178,179,180,181,182,183,184,185,186,187,188,189,190,191,192,193,194,195,196,197,198,199,200,201,202,203,204 width_64 busLabel_64">/64/</text><rect x="142" y="1003" width="16" height="9" class="net_205,206,207 width_3 busLabel_3" style="fill: white; stroke: none"/><text x="141" y="1011" class="net_205,206,207 width_3 busLabel_3">/3/</text><rect x="491" y="1091" width="22" height="9" class="net_219,220,221,222,223,224,225,226,227,228,229,230,231,232,233,234,235,236,237,238,239,240,241,242,243,244,245,246,247,248,249,250,251,252,253,254,255,256,257,258,259,260,261,262,263,264,265,266,267,268,269,270,271,272,273,274,275,276,277,278,279,280,281,282 width_64 busLabel_64" style="fill: white; stroke: none"/><text x="490" y="1099" class="net_219,220,221,222,223,224,225,226,227,228,229,230,231,232,233,234,235,236,237,238,239,240,241,242,243,244,245,246,247,248,249,250,251,252,253,254,255,256,257,258,259,260,261,262,263,264,265,266,267,268,269,270,271,272,273,274,275,276,277,278,279,280,281,282 width_64 busLabel_64">/64/</text><rect x="491" y="1247.5" width="22" height="9" class="net_286,287,288,289,290,291,292,293,294,295,296,297,298,299,300,301,302,303,304,305,306,307,308,309,310,311,312,313,314,315,316,317,318,319,320,321,322,323,324,325,326,327,328,329,330,331,332,333,334,335,336,337,338,339,340,341,342,343,344,345,346,347,348,349 width_64 busLabel_64" style="fill: white; stroke: none"/><text x="490" y="1255.5" class="net_286,287,288,289,290,291,292,293,294,295,296,297,298,299,300,301,302,303,304,305,306,307,308,309,310,311,312,313,314,315,316,317,318,319,320,321,322,323,324,325,326,327,328,329,330,331,332,333,334,335,336,337,338,339,340,341,342,343,344,345,346,347,348,349 width_64 busLabel_64">/64/</text><rect x="491" y="1355.5" width="22" height="9" class="net_350,351,352,353,354,355,356,357,358,359,360,361,362,363,364,365,366,367,368,369,370,371,372,373,374,375,376,377,378,379,380,381,382,383,384,385,386,387,388,389,390,391,392,393,394,395,396,397,398,399,400,401,402,403,404,405,406,407,408,409,410,411,412,413 width_64 busLabel_64" style="fill: white; stroke: none"/><text x="490" y="1363.5" class="net_350,351,352,353,354,355,356,357,358,359,360,361,362,363,364,365,366,367,368,369,370,371,372,373,374,375,376,377,378,379,380,381,382,383,384,385,386,387,388,389,390,391,392,393,394,395,396,397,398,399,400,401,402,403,404,405,406,407,408,409,410,411,412,413 width_64 busLabel_64">/64/</text><rect x="491" y="983" width="16" height="9" class="net_414,415,416 width_3 busLabel_3" style="fill: white; stroke: none"/><text x="490" y="991" class="net_414,415,416 width_3 busLabel_3">/3/</text><rect x="491" y="875" width="16" height="9" class="net_417,418,419,420,421 width_5 busLabel_5" style="fill: white; stroke: none"/><text x="490" y="883" class="net_417,418,419,420,421 width_5 busLabel_5">/5/</text></svg>