<svg xmlns="http://www.w3.org/2000/svg" xmlns:xlink="http://www.w3.org/1999/xlink" xmlns:s="https://github.com/nturley/netlistsvg" width="967.5" height="590.5"><style>svg {
    stroke:#000;
    fill:none;
    background-color:white;
  }
text {
  fill:#000;
  stroke:none;
  font-size:10px;
  font-weight: bold;
  font-family: "Courier New", monospace;
}
line {
    stroke-linecap: round;
}
.nodelabel {
  text-anchor: middle;
}
.inputPortLabel {
  text-anchor: end;
}
.splitjoinBody {
  fill:#000;
}</style><g s:type="eq" transform="translate(674.3333333333334,367.5)" s:width="25" s:height="25" id="cell_$eq$ForwardingUnit.v:11$5"><s:alias val="$eq"/><circle r="12.5" cx="12.5" cy="12.5" fill="#ffc9c3" class="cell_$eq$ForwardingUnit.v:11$5"/><line x1="7.5" x2="17.5" y1="10" y2="10" class="cell_$eq$ForwardingUnit.v:11$5"/><line x1="7.5" x2="17.5" y1="15" y2="15" class="cell_$eq$ForwardingUnit.v:11$5"/><g s:x="2" s:y="5" s:pid="A"/><g s:x="2" s:y="20" s:pid="B"/><g s:x="25" s:y="12.5" s:pid="Y"/></g><g s:type="eq" transform="translate(375,323.5)" s:width="25" s:height="25" id="cell_$eq$ForwardingUnit.v:13$10"><s:alias val="$eq"/><circle r="12.5" cx="12.5" cy="12.5" fill="#ffc9c3" class="cell_$eq$ForwardingUnit.v:13$10"/><line x1="7.5" x2="17.5" y1="10" y2="10" class="cell_$eq$ForwardingUnit.v:13$10"/><line x1="7.5" x2="17.5" y1="15" y2="15" class="cell_$eq$ForwardingUnit.v:13$10"/><g s:x="2" s:y="5" s:pid="A"/><g s:x="2" s:y="20" s:pid="B"/><g s:x="25" s:y="12.5" s:pid="Y"/></g><g s:type="eq" transform="translate(674.3333333333334,492.5)" s:width="25" s:height="25" id="cell_$eq$ForwardingUnit.v:18$15"><s:alias val="$eq"/><circle r="12.5" cx="12.5" cy="12.5" fill="#ffc9c3" class="cell_$eq$ForwardingUnit.v:18$15"/><line x1="7.5" x2="17.5" y1="10" y2="10" class="cell_$eq$ForwardingUnit.v:18$15"/><line x1="7.5" x2="17.5" y1="15" y2="15" class="cell_$eq$ForwardingUnit.v:18$15"/><g s:x="2" s:y="5" s:pid="A"/><g s:x="2" s:y="20" s:pid="B"/><g s:x="25" s:y="12.5" s:pid="Y"/></g><g s:type="eq" transform="translate(375,190.5)" s:width="25" s:height="25" id="cell_$eq$ForwardingUnit.v:20$20"><s:alias val="$eq"/><circle r="12.5" cx="12.5" cy="12.5" fill="#ffc9c3" class="cell_$eq$ForwardingUnit.v:20$20"/><line x1="7.5" x2="17.5" y1="10" y2="10" class="cell_$eq$ForwardingUnit.v:20$20"/><line x1="7.5" x2="17.5" y1="15" y2="15" class="cell_$eq$ForwardingUnit.v:20$20"/><g s:x="2" s:y="5" s:pid="A"/><g s:x="2" s:y="20" s:pid="B"/><g s:x="25" s:y="12.5" s:pid="Y"/></g><g s:type="and" transform="translate(738,297)" s:width="30" s:height="25" id="cell_$logic_and$ForwardingUnit.v:11$6"><s:alias val="$and"/><s:alias val="$logic_and"/><s:alias val="$_AND_"/><path d="M0,0 L0,25 L15,25 A15 12.5 0 0 0 15,0 Z" fill="#eebaff" class="cell_$logic_and$ForwardingUnit.v:11$6"/><g s:x="0" s:y="5" s:pid="A"/><g s:x="0" s:y="20" s:pid="B"/><g s:x="30" s:y="12.5" s:pid="Y"/></g><g s:type="and" transform="translate(485.6666666666667,198)" s:width="30" s:height="25" id="cell_$logic_and$ForwardingUnit.v:13$11"><s:alias val="$and"/><s:alias val="$logic_and"/><s:alias val="$_AND_"/><path d="M0,0 L0,25 L15,25 A15 12.5 0 0 0 15,0 Z" fill="#eebaff" class="cell_$logic_and$ForwardingUnit.v:13$11"/><g s:x="0" s:y="5" s:pid="A"/><g s:x="0" s:y="20" s:pid="B"/><g s:x="30" s:y="12.5" s:pid="Y"/></g><g s:type="and" transform="translate(672.6666666666666,289.5)" s:width="30" s:height="25" id="cell_$logic_and$ForwardingUnit.v:18$14"><s:alias val="$and"/><s:alias val="$logic_and"/><s:alias val="$_AND_"/><path d="M0,0 L0,25 L15,25 A15 12.5 0 0 0 15,0 Z" fill="#eebaff" class="cell_$logic_and$ForwardingUnit.v:18$14"/><g s:x="0" s:y="5" s:pid="A"/><g s:x="0" s:y="20" s:pid="B"/><g s:x="30" s:y="12.5" s:pid="Y"/></g><g s:type="and" transform="translate(738,485)" s:width="30" s:height="25" id="cell_$logic_and$ForwardingUnit.v:18$16"><s:alias val="$and"/><s:alias val="$logic_and"/><s:alias val="$_AND_"/><path d="M0,0 L0,25 L15,25 A15 12.5 0 0 0 15,0 Z" fill="#eebaff" class="cell_$logic_and$ForwardingUnit.v:18$16"/><g s:x="0" s:y="5" s:pid="A"/><g s:x="0" s:y="20" s:pid="B"/><g s:x="30" s:y="12.5" s:pid="Y"/></g><g s:type="and" transform="translate(373.3333333333333,130.5)" s:width="30" s:height="25" id="cell_$logic_and$ForwardingUnit.v:20$19"><s:alias val="$and"/><s:alias val="$logic_and"/><s:alias val="$_AND_"/><path d="M0,0 L0,25 L15,25 A15 12.5 0 0 0 15,0 Z" fill="#eebaff" class="cell_$logic_and$ForwardingUnit.v:20$19"/><g s:x="0" s:y="5" s:pid="A"/><g s:x="0" s:y="20" s:pid="B"/><g s:x="30" s:y="12.5" s:pid="Y"/></g><g s:type="and" transform="translate(485.6666666666667,138)" s:width="30" s:height="25" id="cell_$logic_and$ForwardingUnit.v:20$21"><s:alias val="$and"/><s:alias val="$logic_and"/><s:alias val="$_AND_"/><path d="M0,0 L0,25 L15,25 A15 12.5 0 0 0 15,0 Z" fill="#eebaff" class="cell_$logic_and$ForwardingUnit.v:20$21"/><g s:x="0" s:y="5" s:pid="A"/><g s:x="0" s:y="20" s:pid="B"/><g s:x="30" s:y="12.5" s:pid="Y"/></g><g s:type="generic" transform="translate(446,518.5)" s:width="30" s:height="40" id="cell_$ne$ForwardingUnit.v:18$13"><text x="15" y="-4" class="nodelabel cell_$ne$ForwardingUnit.v:18$13" s:attribute="ref">$reduce_bool</text><rect width="30" height="20" s:generic="body" fill="#ffae46" rx="0" class="cell_$ne$ForwardingUnit.v:18$13"/><g transform="translate(0,10)" s:x="0" s:y="10" s:pid="in0" id="port_$ne$ForwardingUnit.v:18$13~A"><text x="-3" y="-4" class="inputPortLabel cell_$ne$ForwardingUnit.v:18$13">A</text></g><g transform="translate(30,10)" s:x="30" s:y="10" s:pid="out0" id="port_$ne$ForwardingUnit.v:18$13~Y"><text x="5" y="-4" style="fill:#000; stroke:none" class="cell_$ne$ForwardingUnit.v:18$13">Y</text></g></g><g s:type="generic" transform="translate(167,216.5)" s:width="30" s:height="40" id="cell_$ne$ForwardingUnit.v:20$18"><text x="15" y="-4" class="nodelabel cell_$ne$ForwardingUnit.v:20$18" s:attribute="ref">$reduce_bool</text><rect width="30" height="20" s:generic="body" fill="#ffae46" rx="0" class="cell_$ne$ForwardingUnit.v:20$18"/><g transform="translate(0,10)" s:x="0" s:y="10" s:pid="in0" id="port_$ne$ForwardingUnit.v:20$18~A"><text x="-3" y="-4" class="inputPortLabel cell_$ne$ForwardingUnit.v:20$18">A</text></g><g transform="translate(30,10)" s:x="30" s:y="10" s:pid="out0" id="port_$ne$ForwardingUnit.v:20$18~Y"><text x="5" y="-4" style="fill:#000; stroke:none" class="cell_$ne$ForwardingUnit.v:20$18">Y</text></g></g><g s:type="mux-bus" transform="translate(674.6666666666666,87)" s:width="24" s:height="40" id="cell_$procmux$23"><s:alias val="$pmux-bus"/><s:alias val="$mux-bus"/><s:alias val="$_MUX_-bus"/><path d="M8,2 L8,0 L24,8 L24,32 L8,40 L8,38" fill="#ffffff" class="cell_$procmux$23"/><path d="M4,2 L4,0 L22,9 L22,31 L4,40 L4,38" fill="#ffffff" class="cell_$procmux$23"/><path d="M0,0 L20,10 L20,30 L0,40 Z" fill="#ffffff" class="cell_$procmux$23"/><text x="5" y="32" class="nodelabel cell_$procmux$23" s:attribute="">1</text><text x="5" y="13" class="nodelabel cell_$procmux$23" s:attribute="">0</text><g s:x="-1" s:y="10" s:pid="A"/><g s:x="-1" s:y="30" s:pid="B"/><g s:x="12" s:y="38" s:pid="S"/><g s:x="24.5" s:y="20" s:pid="Y"/></g><g s:type="mux-bus" transform="translate(809,97)" s:width="24" s:height="40" id="cell_$procmux$26"><s:alias val="$pmux-bus"/><s:alias val="$mux-bus"/><s:alias val="$_MUX_-bus"/><path d="M8,2 L8,0 L24,8 L24,32 L8,40 L8,38" fill="#ffffff" class="cell_$procmux$26"/><path d="M4,2 L4,0 L22,9 L22,31 L4,40 L4,38" fill="#ffffff" class="cell_$procmux$26"/><path d="M0,0 L20,10 L20,30 L0,40 Z" fill="#ffffff" class="cell_$procmux$26"/><text x="5" y="32" class="nodelabel cell_$procmux$26" s:attribute="">1</text><text x="5" y="13" class="nodelabel cell_$procmux$26" s:attribute="">0</text><g s:x="-1" s:y="10" s:pid="A"/><g s:x="-1" s:y="30" s:pid="B"/><g s:x="12" s:y="38" s:pid="S"/><g s:x="24.5" s:y="20" s:pid="Y"/></g><g s:type="mux-bus" transform="translate(674.6666666666666,22)" s:width="24" s:height="40" id="cell_$procmux$29"><s:alias val="$pmux-bus"/><s:alias val="$mux-bus"/><s:alias val="$_MUX_-bus"/><path d="M8,2 L8,0 L24,8 L24,32 L8,40 L8,38" fill="#ffffff" class="cell_$procmux$29"/><path d="M4,2 L4,0 L22,9 L22,31 L4,40 L4,38" fill="#ffffff" class="cell_$procmux$29"/><path d="M0,0 L20,10 L20,30 L0,40 Z" fill="#ffffff" class="cell_$procmux$29"/><text x="5" y="32" class="nodelabel cell_$procmux$29" s:attribute="">1</text><text x="5" y="13" class="nodelabel cell_$procmux$29" s:attribute="">0</text><g s:x="-1" s:y="10" s:pid="A"/><g s:x="-1" s:y="30" s:pid="B"/><g s:x="12" s:y="38" s:pid="S"/><g s:x="24.5" s:y="20" s:pid="Y"/></g><g s:type="mux-bus" transform="translate(809,32)" s:width="24" s:height="40" id="cell_$procmux$32"><s:alias val="$pmux-bus"/><s:alias val="$mux-bus"/><s:alias val="$_MUX_-bus"/><path d="M8,2 L8,0 L24,8 L24,32 L8,40 L8,38" fill="#ffffff" class="cell_$procmux$32"/><path d="M4,2 L4,0 L22,9 L22,31 L4,40 L4,38" fill="#ffffff" class="cell_$procmux$32"/><path d="M0,0 L20,10 L20,30 L0,40 Z" fill="#ffffff" class="cell_$procmux$32"/><text x="5" y="32" class="nodelabel cell_$procmux$32" s:attribute="">1</text><text x="5" y="13" class="nodelabel cell_$procmux$32" s:attribute="">0</text><g s:x="-1" s:y="10" s:pid="A"/><g s:x="-1" s:y="30" s:pid="B"/><g s:x="12" s:y="38" s:pid="S"/><g s:x="24.5" s:y="20" s:pid="Y"/></g><g s:type="inputExt" transform="translate(167,284.5)" s:width="30" s:height="20" id="cell_RegWrite"><text x="15" y="-4" class="nodelabel cell_RegWrite" s:attribute="ref">RegWrite</text><s:alias val="$_inputExt_"/><path d="M0,0 L0,20 L15,20 L30,10 L15,0 Z" fill="#8bcaff" class="cell_RegWrite"/><g s:x="30" s:y="10" s:pid="Y"/></g><g s:type="inputExt" transform="translate(95,333.5)" s:width="30" s:height="20" id="cell_Rs1"><text x="15" y="-4" class="nodelabel cell_Rs1" s:attribute="ref">Rs1</text><s:alias val="$_inputExt_"/><path d="M0,0 L0,20 L15,20 L30,10 L15,0 Z" fill="#8bcaff" class="cell_Rs1"/><g s:x="30" s:y="10" s:pid="Y"/></g><g s:type="inputExt" transform="translate(95,450.5)" s:width="30" s:height="20" id="cell_Rs2"><text x="15" y="-4" class="nodelabel cell_Rs2" s:attribute="ref">Rs2</text><s:alias val="$_inputExt_"/><path d="M0,0 L0,20 L15,20 L30,10 L15,0 Z" fill="#8bcaff" class="cell_Rs2"/><g s:x="30" s:y="10" s:pid="Y"/></g><g s:type="inputExt" transform="translate(167,519)" s:width="30" s:height="20" id="cell_MEM_rdReg"><text x="15" y="-4" class="nodelabel cell_MEM_rdReg" s:attribute="ref">MEM_rdReg</text><s:alias val="$_inputExt_"/><path d="M0,0 L0,20 L15,20 L30,10 L15,0 Z" fill="#8bcaff" class="cell_MEM_rdReg"/><g s:x="30" s:y="10" s:pid="Y"/></g><g s:type="inputExt" transform="translate(12,217)" s:width="30" s:height="20" id="cell_WB_rdReg"><text x="15" y="-4" class="nodelabel cell_WB_rdReg" s:attribute="ref">WB_rdReg</text><s:alias val="$_inputExt_"/><path d="M0,0 L0,20 L15,20 L30,10 L15,0 Z" fill="#8bcaff" class="cell_WB_rdReg"/><g s:x="30" s:y="10" s:pid="Y"/></g><g s:type="outputExt" transform="translate(907.5,42)" s:width="30" s:height="20" id="cell_ForwardA"><text x="15" y="-4" class="nodelabel cell_ForwardA" s:attribute="ref">ForwardA</text><s:alias val="$_outputExt_"/><path d="M30,0 L30,20 L15,20 L0,10 L15,0 Z" fill="#169300" class="cell_ForwardA"/><g s:x="0" s:y="10" s:pid="A"/></g><g s:type="outputExt" transform="translate(907.5,107)" s:width="30" s:height="20" id="cell_ForwardB"><text x="15" y="-4" class="nodelabel cell_ForwardB" s:attribute="ref">ForwardB</text><s:alias val="$_outputExt_"/><path d="M30,0 L30,20 L15,20 L0,10 L15,0 Z" fill="#169300" class="cell_ForwardB"/><g s:x="0" s:y="10" s:pid="A"/></g><g s:type="constant" transform="translate(373,22)" s:width="30" s:height="20" id="cell_00"><text x="15" y="-4" class="nodelabel cell_00" s:attribute="ref">00</text><s:alias val="$_constant_"/><rect width="30" height="20" fill="#745bff" class="cell_00"/><g s:x="31" s:y="10" s:pid="Y"/></g><g s:type="constant" transform="translate(373,438.5)" s:width="30" s:height="20" id="cell_01"><text x="15" y="-4" class="nodelabel cell_01" s:attribute="ref">01</text><s:alias val="$_constant_"/><rect width="30" height="20" fill="#745bff" class="cell_01"/><g s:x="31" s:y="10" s:pid="Y"/></g><g s:type="constant" transform="translate(672,170.5)" s:width="30" s:height="20" id="cell_10"><text x="15" y="-4" class="nodelabel cell_10" s:attribute="ref">10</text><s:alias val="$_constant_"/><rect width="30" height="20" fill="#745bff" class="cell_10"/><g s:x="31" s:y="10" s:pid="Y"/></g><line x1="197" x2="333" y1="529" y2="529" class="net_13,14,15,16,17 width_5" style="stroke-width: 2"/><line x1="333" x2="333" y1="529" y2="552.5" class="net_13,14,15,16,17 width_5" style="stroke-width: 2"/><line x1="333" x2="652" y1="552.5" y2="552.5" class="net_13,14,15,16,17 width_5" style="stroke-width: 2"/><line x1="652" x2="652" y1="552.5" y2="372.5" class="net_13,14,15,16,17 width_5" style="stroke-width: 2"/><circle cx="333" cy="529" r="3" style="fill:#000" class="net_13,14,15,16,17 width_5"/><line x1="652" x2="676.3333333333334" y1="372.5" y2="372.5" class="net_13,14,15,16,17 width_5" style="stroke-width: 2"/><line x1="197" x2="333" y1="529" y2="529" class="net_13,14,15,16,17 width_5" style="stroke-width: 2"/><line x1="333" x2="333" y1="529" y2="497.5" class="net_13,14,15,16,17 width_5" style="stroke-width: 2"/><line x1="333" x2="676.3333333333334" y1="497.5" y2="497.5" class="net_13,14,15,16,17 width_5" style="stroke-width: 2"/><line x1="197" x2="446" y1="529" y2="529" class="net_13,14,15,16,17 width_5" style="stroke-width: 2"/><line x1="125" x2="135" y1="343.5" y2="343.5" class="net_3,4,5,6,7 width_5" style="stroke-width: 2"/><line x1="135" x2="135" y1="343.5" y2="387.5" class="net_3,4,5,6,7 width_5" style="stroke-width: 2"/><circle cx="135" cy="343.5" r="3" style="fill:#000" class="net_3,4,5,6,7 width_5"/><line x1="135" x2="676.3333333333334" y1="387.5" y2="387.5" class="net_3,4,5,6,7 width_5" style="stroke-width: 2"/><line x1="125" x2="377" y1="343.5" y2="343.5" class="net_3,4,5,6,7 width_5" style="stroke-width: 2"/><line x1="42" x2="70" y1="227" y2="227" class="net_18,19,20,21,22 width_5" style="stroke-width: 2"/><line x1="70" x2="70" y1="227" y2="399.5" class="net_18,19,20,21,22 width_5" style="stroke-width: 2"/><line x1="70" x2="363" y1="399.5" y2="399.5" class="net_18,19,20,21,22 width_5" style="stroke-width: 2"/><line x1="363" x2="363" y1="399.5" y2="328.5" class="net_18,19,20,21,22 width_5" style="stroke-width: 2"/><circle cx="70" cy="227" r="3" style="fill:#000" class="net_18,19,20,21,22 width_5"/><line x1="363" x2="377" y1="328.5" y2="328.5" class="net_18,19,20,21,22 width_5" style="stroke-width: 2"/><line x1="42" x2="70" y1="227" y2="227" class="net_18,19,20,21,22 width_5" style="stroke-width: 2"/><line x1="70" x2="70" y1="227" y2="195.5" class="net_18,19,20,21,22 width_5" style="stroke-width: 2"/><line x1="70" x2="377" y1="195.5" y2="195.5" class="net_18,19,20,21,22 width_5" style="stroke-width: 2"/><line x1="42" x2="167" y1="227" y2="227" class="net_18,19,20,21,22 width_5" style="stroke-width: 2"/><line x1="125" x2="135" y1="460.5" y2="460.5" class="net_8,9,10,11,12 width_5" style="stroke-width: 2"/><line x1="135" x2="135" y1="460.5" y2="572.5" class="net_8,9,10,11,12 width_5" style="stroke-width: 2"/><line x1="135" x2="662" y1="572.5" y2="572.5" class="net_8,9,10,11,12 width_5" style="stroke-width: 2"/><line x1="662" x2="662" y1="572.5" y2="512.5" class="net_8,9,10,11,12 width_5" style="stroke-width: 2"/><circle cx="135" cy="460.5" r="3" style="fill:#000" class="net_8,9,10,11,12 width_5"/><line x1="662" x2="676.3333333333334" y1="512.5" y2="512.5" class="net_8,9,10,11,12 width_5" style="stroke-width: 2"/><line x1="125" x2="353" y1="460.5" y2="460.5" class="net_8,9,10,11,12 width_5" style="stroke-width: 2"/><line x1="353" x2="353" y1="460.5" y2="210.5" class="net_8,9,10,11,12 width_5" style="stroke-width: 2"/><line x1="353" x2="377" y1="210.5" y2="210.5" class="net_8,9,10,11,12 width_5" style="stroke-width: 2"/><line x1="702.6666666666666" x2="738" y1="302" y2="302" class="net_31 width_1" style="stroke-width: 1"/><line x1="702.6666666666666" x2="723" y1="302" y2="302" class="net_31 width_1" style="stroke-width: 1"/><line x1="723" x2="723" y1="302" y2="490" class="net_31 width_1" style="stroke-width: 1"/><circle cx="723" cy="302" r="2" style="fill:#000" class="net_31 width_1"/><line x1="723" x2="738" y1="490" y2="490" class="net_31 width_1" style="stroke-width: 1"/><line x1="699.3333333333334" x2="713" y1="380" y2="380" class="net_27 width_1" style="stroke-width: 1"/><line x1="713" x2="713" y1="380" y2="317" class="net_27 width_1" style="stroke-width: 1"/><line x1="713" x2="738" y1="317" y2="317" class="net_27 width_1" style="stroke-width: 1"/><line x1="403.3333333333333" x2="424" y1="143" y2="143" class="net_33 width_1" style="stroke-width: 1"/><line x1="424" x2="424" y1="143" y2="203" class="net_33 width_1" style="stroke-width: 1"/><circle cx="424" cy="143" r="2" style="fill:#000" class="net_33 width_1"/><line x1="424" x2="485.6666666666667" y1="203" y2="203" class="net_33 width_1" style="stroke-width: 1"/><line x1="403.3333333333333" x2="485.6666666666667" y1="143" y2="143" class="net_33 width_1" style="stroke-width: 1"/><line x1="400" x2="414" y1="336" y2="336" class="net_28 width_1" style="stroke-width: 1"/><line x1="414" x2="414" y1="336" y2="218" class="net_28 width_1" style="stroke-width: 1"/><line x1="414" x2="485.6666666666667" y1="218" y2="218" class="net_28 width_1" style="stroke-width: 1"/><line x1="197" x2="672.6666666666666" y1="294.5" y2="294.5" class="net_2 width_1" style="stroke-width: 1"/><line x1="197" x2="343" y1="294.5" y2="294.5" class="net_2 width_1" style="stroke-width: 1"/><line x1="343" x2="343" y1="294.5" y2="135.5" class="net_2 width_1" style="stroke-width: 1"/><circle cx="343" cy="294.5" r="2" style="fill:#000" class="net_2 width_1"/><line x1="343" x2="373.3333333333333" y1="135.5" y2="135.5" class="net_2 width_1" style="stroke-width: 1"/><line x1="477" x2="642" y1="529" y2="529" class="net_35 width_1" style="stroke-width: 1"/><line x1="642" x2="642" y1="529" y2="309.5" class="net_35 width_1" style="stroke-width: 1"/><line x1="642" x2="672.6666666666666" y1="309.5" y2="309.5" class="net_35 width_1" style="stroke-width: 1"/><line x1="699.3333333333334" x2="738" y1="505" y2="505" class="net_29 width_1" style="stroke-width: 1"/><line x1="198" x2="333" y1="227" y2="227" class="net_37 width_1" style="stroke-width: 1"/><line x1="333" x2="333" y1="227" y2="150.5" class="net_37 width_1" style="stroke-width: 1"/><line x1="333" x2="373.3333333333333" y1="150.5" y2="150.5" class="net_37 width_1" style="stroke-width: 1"/><line x1="400" x2="414" y1="203" y2="203" class="net_30 width_1" style="stroke-width: 1"/><line x1="414" x2="414" y1="203" y2="158" class="net_30 width_1" style="stroke-width: 1"/><line x1="414" x2="485.6666666666667" y1="158" y2="158" class="net_30 width_1" style="stroke-width: 1"/><line x1="404" x2="414" y1="32" y2="32" class="net_43,44 width_2" style="stroke-width: 2"/><line x1="414" x2="414" y1="32" y2="97" class="net_43,44 width_2" style="stroke-width: 2"/><circle cx="414" cy="32" r="3" style="fill:#000" class="net_43,44 width_2"/><line x1="414" x2="673.6666666666666" y1="97" y2="97" class="net_43,44 width_2" style="stroke-width: 2"/><line x1="404" x2="673.6666666666666" y1="32" y2="32" class="net_43,44 width_2" style="stroke-width: 2"/><line x1="404" x2="414" y1="448.5" y2="448.5" class="net_45,46 width_2" style="stroke-width: 2"/><line x1="414" x2="414" y1="448.5" y2="468.5" class="net_45,46 width_2" style="stroke-width: 2"/><line x1="414" x2="632" y1="468.5" y2="468.5" class="net_45,46 width_2" style="stroke-width: 2"/><line x1="632" x2="632" y1="468.5" y2="117" class="net_45,46 width_2" style="stroke-width: 2"/><circle cx="414" cy="448.5" r="3" style="fill:#000" class="net_45,46 width_2"/><line x1="632" x2="673.6666666666666" y1="117" y2="117" class="net_45,46 width_2" style="stroke-width: 2"/><line x1="404" x2="622" y1="448.5" y2="448.5" class="net_45,46 width_2" style="stroke-width: 2"/><line x1="622" x2="622" y1="448.5" y2="52" class="net_45,46 width_2" style="stroke-width: 2"/><line x1="622" x2="673.6666666666666" y1="52" y2="52" class="net_45,46 width_2" style="stroke-width: 2"/><line x1="515.6666666666667" x2="686.6666666666666" y1="150.5" y2="150.5" class="net_38 width_1" style="stroke-width: 1"/><line x1="686.6666666666666" x2="686.6666666666666" y1="150.5" y2="125" class="net_38 width_1" style="stroke-width: 1"/><line x1="699.1666666666666" x2="808" y1="107" y2="107" class="net_39,40 width_2" style="stroke-width: 2"/><line x1="703" x2="713" y1="180.5" y2="180.5" class="net_47,48 width_2" style="stroke-width: 2"/><line x1="713" x2="713" y1="180.5" y2="200.5" class="net_47,48 width_2" style="stroke-width: 2"/><line x1="713" x2="798" y1="200.5" y2="200.5" class="net_47,48 width_2" style="stroke-width: 2"/><line x1="798" x2="798" y1="200.5" y2="127" class="net_47,48 width_2" style="stroke-width: 2"/><circle cx="713" cy="180.5" r="3" style="fill:#000" class="net_47,48 width_2"/><line x1="798" x2="808" y1="127" y2="127" class="net_47,48 width_2" style="stroke-width: 2"/><line x1="703" x2="778" y1="180.5" y2="180.5" class="net_47,48 width_2" style="stroke-width: 2"/><line x1="778" x2="778" y1="180.5" y2="62" class="net_47,48 width_2" style="stroke-width: 2"/><line x1="778" x2="808" y1="62" y2="62" class="net_47,48 width_2" style="stroke-width: 2"/><line x1="768" x2="821" y1="497.5" y2="497.5" class="net_36 width_1" style="stroke-width: 1"/><line x1="821" x2="821" y1="497.5" y2="135" class="net_36 width_1" style="stroke-width: 1"/><line x1="515.6666666666667" x2="612" y1="210.5" y2="210.5" class="net_34 width_1" style="stroke-width: 1"/><line x1="612" x2="612" y1="210.5" y2="72" class="net_34 width_1" style="stroke-width: 1"/><line x1="612" x2="686.6666666666666" y1="72" y2="72" class="net_34 width_1" style="stroke-width: 1"/><line x1="686.6666666666666" x2="686.6666666666666" y1="72" y2="60" class="net_34 width_1" style="stroke-width: 1"/><line x1="699.1666666666666" x2="808" y1="42" y2="42" class="net_41,42 width_2" style="stroke-width: 2"/><line x1="768" x2="788" y1="309.5" y2="309.5" class="net_32 width_1" style="stroke-width: 1"/><line x1="788" x2="788" y1="309.5" y2="82" class="net_32 width_1" style="stroke-width: 1"/><line x1="788" x2="821" y1="82" y2="82" class="net_32 width_1" style="stroke-width: 1"/><line x1="821" x2="821" y1="82" y2="70" class="net_32 width_1" style="stroke-width: 1"/><line x1="833.5" x2="907.5" y1="52" y2="52" class="net_23,24 width_2" style="stroke-width: 2"/><line x1="833.5" x2="907.5" y1="117" y2="117" class="net_25,26 width_2" style="stroke-width: 2"/><rect x="387.5" y="524" width="16" height="9" class="net_13,14,15,16,17 width_5 busLabel_5" style="fill: white; stroke: none"/><text x="386.5" y="532" class="net_13,14,15,16,17 width_5 busLabel_5">/5/</text><rect x="387.5" y="524" width="16" height="9" class="net_13,14,15,16,17 width_5 busLabel_5" style="fill: white; stroke: none"/><text x="386.5" y="532" class="net_13,14,15,16,17 width_5 busLabel_5">/5/</text><rect x="387.5" y="524" width="16" height="9" class="net_13,14,15,16,17 width_5 busLabel_5" style="fill: white; stroke: none"/><text x="386.5" y="532" class="net_13,14,15,16,17 width_5 busLabel_5">/5/</text><rect x="240.5" y="338.5" width="16" height="9" class="net_3,4,5,6,7 width_5 busLabel_5" style="fill: white; stroke: none"/><text x="239.5" y="346.5" class="net_3,4,5,6,7 width_5 busLabel_5">/5/</text><rect x="240.5" y="338.5" width="16" height="9" class="net_3,4,5,6,7 width_5 busLabel_5" style="fill: white; stroke: none"/><text x="239.5" y="346.5" class="net_3,4,5,6,7 width_5 busLabel_5">/5/</text><rect x="109" y="222" width="16" height="9" class="net_18,19,20,21,22 width_5 busLabel_5" style="fill: white; stroke: none"/><text x="108" y="230" class="net_18,19,20,21,22 width_5 busLabel_5">/5/</text><rect x="109" y="222" width="16" height="9" class="net_18,19,20,21,22 width_5 busLabel_5" style="fill: white; stroke: none"/><text x="108" y="230" class="net_18,19,20,21,22 width_5 busLabel_5">/5/</text><rect x="109" y="222" width="16" height="9" class="net_18,19,20,21,22 width_5 busLabel_5" style="fill: white; stroke: none"/><text x="108" y="230" class="net_18,19,20,21,22 width_5 busLabel_5">/5/</text><rect x="240.5" y="455.5" width="16" height="9" class="net_8,9,10,11,12 width_5 busLabel_5" style="fill: white; stroke: none"/><text x="239.5" y="463.5" class="net_8,9,10,11,12 width_5 busLabel_5">/5/</text><rect x="240.5" y="455.5" width="16" height="9" class="net_8,9,10,11,12 width_5 busLabel_5" style="fill: white; stroke: none"/><text x="239.5" y="463.5" class="net_8,9,10,11,12 width_5 busLabel_5">/5/</text><rect x="519.5" y="27" width="16" height="9" class="net_43,44 width_2 busLabel_2" style="fill: white; stroke: none"/><text x="518.5" y="35" class="net_43,44 width_2 busLabel_2">/2/</text><rect x="519.5" y="27" width="16" height="9" class="net_43,44 width_2 busLabel_2" style="fill: white; stroke: none"/><text x="518.5" y="35" class="net_43,44 width_2 busLabel_2">/2/</text><rect x="519.5" y="443.5" width="16" height="9" class="net_45,46 width_2 busLabel_2" style="fill: white; stroke: none"/><text x="518.5" y="451.5" class="net_45,46 width_2 busLabel_2">/2/</text><rect x="519.5" y="443.5" width="16" height="9" class="net_45,46 width_2 busLabel_2" style="fill: white; stroke: none"/><text x="518.5" y="451.5" class="net_45,46 width_2 busLabel_2">/2/</text><rect x="752" y="102" width="16" height="9" class="net_39,40 width_2 busLabel_2" style="fill: white; stroke: none"/><text x="751" y="110" class="net_39,40 width_2 busLabel_2">/2/</text><rect x="752" y="175.5" width="16" height="9" class="net_47,48 width_2 busLabel_2" style="fill: white; stroke: none"/><text x="751" y="183.5" class="net_47,48 width_2 busLabel_2">/2/</text><rect x="752" y="175.5" width="16" height="9" class="net_47,48 width_2 busLabel_2" style="fill: white; stroke: none"/><text x="751" y="183.5" class="net_47,48 width_2 busLabel_2">/2/</text><rect x="752" y="37" width="16" height="9" class="net_41,42 width_2 busLabel_2" style="fill: white; stroke: none"/><text x="751" y="45" class="net_41,42 width_2 busLabel_2">/2/</text><rect x="869.5" y="47" width="16" height="9" class="net_23,24 width_2 busLabel_2" style="fill: white; stroke: none"/><text x="868.5" y="55" class="net_23,24 width_2 busLabel_2">/2/</text><rect x="869.5" y="112" width="16" height="9" class="net_25,26 width_2 busLabel_2" style="fill: white; stroke: none"/><text x="868.5" y="120" class="net_25,26 width_2 busLabel_2">/2/</text></svg>