<svg xmlns="http://www.w3.org/2000/svg" xmlns:xlink="http://www.w3.org/1999/xlink" xmlns:s="https://github.com/nturley/netlistsvg" width="476" height="209"><style>svg {
  stroke:#000;
  fill:none;
}
text {
  fill:#000;
  stroke:none;
  font-size:10px;
  font-weight: bold;
  font-family: "Courier New", monospace;
}
line {
    stroke-linecap: round;
}
.nodelabel {
  text-anchor: middle;
}
.inputPortLabel {
  text-anchor: end;
}
.splitjoinBody {
  fill:#000;
}</style><g s:type="eq" transform="translate(134,102)" s:width="25" s:height="25" id="cell_$eq$HazardUnit.v:8$3"><s:alias val="$eq"/><circle r="12.5" cx="12.5" cy="12.5" fill="#ffc9c3" class="cell_$eq$HazardUnit.v:8$3"/><line x1="7.5" x2="17.5" y1="10" y2="10" class="cell_$eq$HazardUnit.v:8$3"/><line x1="7.5" x2="17.5" y1="15" y2="15" class="cell_$eq$HazardUnit.v:8$3"/><g s:x="2" s:y="5" s:pid="A"/><g s:x="2" s:y="20" s:pid="B"/><g s:x="25" s:y="12.5" s:pid="Y"/></g><g s:type="eq" transform="translate(134,167)" s:width="25" s:height="25" id="cell_$eq$HazardUnit.v:8$4"><s:alias val="$eq"/><circle r="12.5" cx="12.5" cy="12.5" fill="#ffc9c3" class="cell_$eq$HazardUnit.v:8$4"/><line x1="7.5" x2="17.5" y1="10" y2="10" class="cell_$eq$HazardUnit.v:8$4"/><line x1="7.5" x2="17.5" y1="15" y2="15" class="cell_$eq$HazardUnit.v:8$4"/><g s:x="2" s:y="5" s:pid="A"/><g s:x="2" s:y="20" s:pid="B"/><g s:x="25" s:y="12.5" s:pid="Y"/></g><g s:type="and" transform="translate(289.3333333333333,152)" s:width="30" s:height="25" id="cell_$logic_and$HazardUnit.v:8$6"><s:alias val="$and"/><s:alias val="$logic_and"/><s:alias val="$_AND_"/><path d="M0,0 L0,25 L15,25 A15 12.5 0 0 0 15,0 Z" fill="#eebaff" class="cell_$logic_and$HazardUnit.v:8$6"/><g s:x="0" s:y="5" s:pid="A"/><g s:x="0" s:y="20" s:pid="B"/><g s:x="30" s:y="12.5" s:pid="Y"/></g><g s:type="or" transform="translate(204,159.5)" s:width="30" s:height="25" id="cell_$or$HazardUnit.v:8$5"><s:alias val="$or"/><s:alias val="$logic_or"/><s:alias val="$_OR_"/><path d="M0,25 L0,25 L15,25 A15 12.5 0 0 0 15,0 L0,0 A30 25 0 0 1 0,25 Z" fill="#eebaff" class="cell_$or$HazardUnit.v:8$5"/><g s:x="2" s:y="5" s:pid="A"/><g s:x="2" s:y="20" s:pid="B"/><g s:x="30" s:y="12.5" s:pid="Y"/></g><g s:type="mux" transform="translate(355,77)" s:width="20" s:height="40" id="cell_$procmux$11"><s:alias val="$pmux"/><s:alias val="$mux"/><s:alias val="$_MUX_"/><path d="M0,0 L20,10 L20,30 L0,40 Z" fill="#ffffff" class="cell_$procmux$11"/><text x="5" y="32" class="nodelabel cell_$procmux$11" s:attribute="">1</text><text x="5" y="13" class="nodelabel cell_$procmux$11" s:attribute="">0</text><g s:x="0" s:y="10" s:pid="A"/><g s:x="0" s:y="30" s:pid="B"/><g s:x="10" s:y="35" s:pid="S"/><g s:x="20" s:y="20" s:pid="Y"/></g><g s:type="inputExt" transform="translate(194,104.5)" s:width="30" s:height="20" id="cell_EX_MemRead"><text x="15" y="-4" class="nodelabel cell_EX_MemRead" s:attribute="ref">EX_MemRead</text><s:alias val="$_inputExt_"/><path d="M0,0 L0,20 L15,20 L30,10 L15,0 Z" fill="#8bcaff" class="cell_EX_MemRead"/><g s:x="30" s:y="10" s:pid="Y"/></g><g s:type="inputExt" transform="translate(12,112)" s:width="30" s:height="20" id="cell_ID_Rs1"><text x="15" y="-4" class="nodelabel cell_ID_Rs1" s:attribute="ref">ID_Rs1</text><s:alias val="$_inputExt_"/><path d="M0,0 L0,20 L15,20 L30,10 L15,0 Z" fill="#8bcaff" class="cell_ID_Rs1"/><g s:x="30" s:y="10" s:pid="Y"/></g><g s:type="inputExt" transform="translate(12,177)" s:width="30" s:height="20" id="cell_ID_Rs2"><text x="15" y="-4" class="nodelabel cell_ID_Rs2" s:attribute="ref">ID_Rs2</text><s:alias val="$_inputExt_"/><path d="M0,0 L0,20 L15,20 L30,10 L15,0 Z" fill="#8bcaff" class="cell_ID_Rs2"/><g s:x="30" s:y="10" s:pid="Y"/></g><g s:type="inputExt" transform="translate(12,47)" s:width="30" s:height="20" id="cell_EX_rdReg"><text x="15" y="-4" class="nodelabel cell_EX_rdReg" s:attribute="ref">EX_rdReg</text><s:alias val="$_inputExt_"/><path d="M0,0 L0,20 L15,20 L30,10 L15,0 Z" fill="#8bcaff" class="cell_EX_rdReg"/><g s:x="30" s:y="10" s:pid="Y"/></g><g s:type="outputExt" transform="translate(410,87)" s:width="30" s:height="20" id="cell_Controlen"><text x="15" y="-4" class="nodelabel cell_Controlen" s:attribute="ref">Controlen</text><s:alias val="$_outputExt_"/><path d="M30,0 L30,20 L15,20 L0,10 L15,0 Z" fill="#169300" class="cell_Controlen"/><g s:x="0" s:y="10" s:pid="A"/></g><g s:type="outputExt" transform="translate(410,152)" s:width="30" s:height="20" id="cell_PCen"><text x="15" y="-4" class="nodelabel cell_PCen" s:attribute="ref">PCen</text><s:alias val="$_outputExt_"/><path d="M30,0 L30,20 L15,20 L0,10 L15,0 Z" fill="#169300" class="cell_PCen"/><g s:x="0" s:y="10" s:pid="A"/></g><g s:type="outputExt" transform="translate(410,22)" s:width="30" s:height="20" id="cell_IF_IDen"><text x="15" y="-4" class="nodelabel cell_IF_IDen" s:attribute="ref">IF_IDen</text><s:alias val="$_outputExt_"/><path d="M30,0 L30,20 L15,20 L0,10 L15,0 Z" fill="#169300" class="cell_IF_IDen"/><g s:x="0" s:y="10" s:pid="A"/></g><g s:type="constant" transform="translate(289,32)" s:width="30" s:height="20" id="cell_1"><text x="15" y="-4" class="nodelabel cell_1" s:attribute="ref">1</text><s:alias val="$_constant_"/><rect width="30" height="20" fill="#745bff" class="cell_1"/><g s:x="31" s:y="10" s:pid="Y"/></g><g s:type="constant" transform="translate(289,97)" s:width="30" s:height="20" id="cell_0"><text x="15" y="-4" class="nodelabel cell_0" s:attribute="ref">0</text><s:alias val="$_constant_"/><rect width="30" height="20" fill="#745bff" class="cell_0"/><g s:x="31" s:y="10" s:pid="Y"/></g><line x1="42" x2="109" y1="57" y2="57" class="net_13,14,15,16,17 width_5" style="stroke-width: 2"/><line x1="109" x2="109" y1="57" y2="107" class="net_13,14,15,16,17 width_5" style="stroke-width: 2"/><line x1="109" x2="136" y1="107" y2="107" class="net_13,14,15,16,17 width_5" style="stroke-width: 2"/><line x1="42" x2="70" y1="57" y2="57" class="net_13,14,15,16,17 width_5" style="stroke-width: 2"/><line x1="70" x2="70" y1="57" y2="167" class="net_13,14,15,16,17 width_5" style="stroke-width: 2"/><line x1="70" x2="109" y1="167" y2="167" class="net_13,14,15,16,17 width_5" style="stroke-width: 2"/><line x1="109" x2="109" y1="167" y2="172" class="net_13,14,15,16,17 width_5" style="stroke-width: 2"/><circle cx="70" cy="57" r="3" style="fill:#000" class="net_13,14,15,16,17 width_5"/><line x1="109" x2="136" y1="172" y2="172" class="net_13,14,15,16,17 width_5" style="stroke-width: 2"/><line x1="42" x2="136" y1="122" y2="122" class="net_3,4,5,6,7 width_5" style="stroke-width: 2"/><line x1="42" x2="136" y1="187" y2="187" class="net_8,9,10,11,12 width_5" style="stroke-width: 2"/><line x1="224" x2="264" y1="114.5" y2="114.5" class="net_2 width_1" style="stroke-width: 1"/><line x1="264" x2="264" y1="114.5" y2="157" class="net_2 width_1" style="stroke-width: 1"/><line x1="264" x2="289.3333333333333" y1="157" y2="157" class="net_2 width_1" style="stroke-width: 1"/><line x1="234" x2="289.3333333333333" y1="172" y2="172" class="net_21 width_1" style="stroke-width: 1"/><line x1="159" x2="169" y1="114.5" y2="114.5" class="net_19 width_1" style="stroke-width: 1"/><line x1="169" x2="169" y1="114.5" y2="164.5" class="net_19 width_1" style="stroke-width: 1"/><line x1="169" x2="206" y1="164.5" y2="164.5" class="net_19 width_1" style="stroke-width: 1"/><line x1="159" x2="206" y1="179.5" y2="179.5" class="net_20 width_1" style="stroke-width: 1"/><line x1="320" x2="330" y1="42" y2="42" class="net_23 width_1" style="stroke-width: 1"/><line x1="330" x2="330" y1="42" y2="87" class="net_23 width_1" style="stroke-width: 1"/><line x1="330" x2="355" y1="87" y2="87" class="net_23 width_1" style="stroke-width: 1"/><line x1="320" x2="355" y1="107" y2="107" class="net_24 width_1" style="stroke-width: 1"/><line x1="319.3333333333333" x2="365" y1="164.5" y2="164.5" class="net_22 width_1" style="stroke-width: 1"/><line x1="365" x2="365" y1="164.5" y2="112" class="net_22 width_1" style="stroke-width: 1"/><line x1="375" x2="410" y1="97" y2="97" class="net_18 width_1" style="stroke-width: 1"/><line x1="375" x2="385" y1="97" y2="97" class="net_18 width_1" style="stroke-width: 1"/><line x1="385" x2="385" y1="97" y2="162" class="net_18 width_1" style="stroke-width: 1"/><circle cx="385" cy="97" r="2" style="fill:#000" class="net_18 width_1"/><line x1="385" x2="410" y1="162" y2="162" class="net_18 width_1" style="stroke-width: 1"/><line x1="375" x2="385" y1="97" y2="97" class="net_18 width_1" style="stroke-width: 1"/><line x1="385" x2="385" y1="97" y2="32" class="net_18 width_1" style="stroke-width: 1"/><line x1="385" x2="410" y1="32" y2="32" class="net_18 width_1" style="stroke-width: 1"/><rect x="96" y="162" width="16" height="9" class="net_13,14,15,16,17 width_5 busLabel_5" style="fill: white; stroke: none"/><text x="95" y="170" class="net_13,14,15,16,17 width_5 busLabel_5">/5/</text><rect x="96" y="162" width="16" height="9" class="net_13,14,15,16,17 width_5 busLabel_5" style="fill: white; stroke: none"/><text x="95" y="170" class="net_13,14,15,16,17 width_5 busLabel_5">/5/</text><rect x="96" y="117" width="16" height="9" class="net_3,4,5,6,7 width_5 busLabel_5" style="fill: white; stroke: none"/><text x="95" y="125" class="net_3,4,5,6,7 width_5 busLabel_5">/5/</text><rect x="96" y="182" width="16" height="9" class="net_8,9,10,11,12 width_5 busLabel_5" style="fill: white; stroke: none"/><text x="95" y="190" class="net_8,9,10,11,12 width_5 busLabel_5">/5/</text></svg>