<svg xmlns="http://www.w3.org/2000/svg" xmlns:xlink="http://www.w3.org/1999/xlink" xmlns:s="https://github.com/nturley/netlistsvg" width="448" height="378"><style>svg {
    stroke:#000;
    fill:none;
    background-color:white;
  }
text {
  fill:#000;
  stroke:none;
  font-size:10px;
  font-weight: bold;
  font-family: "Courier New", monospace;
}
line {
    stroke-linecap: round;
}
.nodelabel {
  text-anchor: middle;
}
.inputPortLabel {
  text-anchor: end;
}
.splitjoinBody {
  fill:#000;
}</style><g s:type="dff" transform="translate(298,107)" s:width="30" s:height="40" id="cell_$procdff$2"><s:alias val="$dff"/><s:alias val="$_DFF_"/><s:alias val="$_DFF_P_"/><s:alias val="dff-bus"/><s:alias val="$dff-bus"/><s:alias val="$_DFF_-bus"/><s:alias val="$_DFF_P_-bus"/><rect width="30" height="40" x="0" y="0" fill="#ffef8b" class="cell_$procdff$2"/><path d="M0,35 L5,30 L0,25" class="cell_$procdff$2"/><g s:x="31" s:y="10" s:pid="Q"/><g s:x="-1" s:y="30" s:pid="CLK"/><g s:x="-1" s:y="30" s:pid="C"/><g s:x="-1" s:y="10" s:pid="D"/></g><g s:type="dff" transform="translate(298,182)" s:width="30" s:height="40" id="cell_$procdff$3"><s:alias val="$dff"/><s:alias val="$_DFF_"/><s:alias val="$_DFF_P_"/><s:alias val="dff-bus"/><s:alias val="$dff-bus"/><s:alias val="$_DFF_-bus"/><s:alias val="$_DFF_P_-bus"/><rect width="30" height="40" x="0" y="0" fill="#ffef8b" class="cell_$procdff$3"/><path d="M0,35 L5,30 L0,25" class="cell_$procdff$3"/><g s:x="31" s:y="10" s:pid="Q"/><g s:x="-1" s:y="30" s:pid="CLK"/><g s:x="-1" s:y="30" s:pid="C"/><g s:x="-1" s:y="10" s:pid="D"/></g><g s:type="dff" transform="translate(204.33333333333334,22)" s:width="30" s:height="40" id="cell_$procdff$4"><s:alias val="$dff"/><s:alias val="$_DFF_"/><s:alias val="$_DFF_P_"/><s:alias val="dff-bus"/><s:alias val="$dff-bus"/><s:alias val="$_DFF_-bus"/><s:alias val="$_DFF_P_-bus"/><rect width="30" height="40" x="0" y="0" fill="#ffef8b" class="cell_$procdff$4"/><path d="M0,35 L5,30 L0,25" class="cell_$procdff$4"/><g s:x="31" s:y="10" s:pid="Q"/><g s:x="-1" s:y="30" s:pid="CLK"/><g s:x="-1" s:y="30" s:pid="C"/><g s:x="-1" s:y="10" s:pid="D"/></g><g s:type="dff" transform="translate(204.33333333333334,251)" s:width="30" s:height="40" id="cell_$procdff$5"><s:alias val="$dff"/><s:alias val="$_DFF_"/><s:alias val="$_DFF_P_"/><s:alias val="dff-bus"/><s:alias val="$dff-bus"/><s:alias val="$_DFF_-bus"/><s:alias val="$_DFF_P_-bus"/><rect width="30" height="40" x="0" y="0" fill="#ffef8b" class="cell_$procdff$5"/><path d="M0,35 L5,30 L0,25" class="cell_$procdff$5"/><g s:x="31" s:y="10" s:pid="Q"/><g s:x="-1" s:y="30" s:pid="CLK"/><g s:x="-1" s:y="30" s:pid="C"/><g s:x="-1" s:y="10" s:pid="D"/></g><g s:type="dff" transform="translate(204.33333333333334,326)" s:width="30" s:height="40" id="cell_$procdff$6"><s:alias val="$dff"/><s:alias val="$_DFF_"/><s:alias val="$_DFF_P_"/><s:alias val="dff-bus"/><s:alias val="$dff-bus"/><s:alias val="$_DFF_-bus"/><s:alias val="$_DFF_P_-bus"/><rect width="30" height="40" x="0" y="0" fill="#ffef8b" class="cell_$procdff$6"/><path d="M0,35 L5,30 L0,25" class="cell_$procdff$6"/><g s:x="31" s:y="10" s:pid="Q"/><g s:x="-1" s:y="30" s:pid="CLK"/><g s:x="-1" s:y="30" s:pid="C"/><g s:x="-1" s:y="10" s:pid="D"/></g><g s:type="inputExt" transform="translate(125,127)" s:width="30" s:height="20" id="cell_clk"><text x="15" y="-4" class="nodelabel cell_clk" s:attribute="ref">clk</text><s:alias val="$_inputExt_"/><path d="M0,0 L0,20 L15,20 L30,10 L15,0 Z" fill="#8bcaff" class="cell_clk"/><g s:x="30" s:y="10" s:pid="Y"/></g><g s:type="inputExt" transform="translate(190,107)" s:width="30" s:height="20" id="cell_MEM_MemtoReg"><text x="15" y="-4" class="nodelabel cell_MEM_MemtoReg" s:attribute="ref">MEM_MemtoReg</text><s:alias val="$_inputExt_"/><path d="M0,0 L0,20 L15,20 L30,10 L15,0 Z" fill="#8bcaff" class="cell_MEM_MemtoReg"/><g s:x="30" s:y="10" s:pid="Y"/></g><g s:type="inputExt" transform="translate(190,182)" s:width="30" s:height="20" id="cell_MEM_RegWrite"><text x="15" y="-4" class="nodelabel cell_MEM_RegWrite" s:attribute="ref">MEM_RegWrite</text><s:alias val="$_inputExt_"/><path d="M0,0 L0,20 L15,20 L30,10 L15,0 Z" fill="#8bcaff" class="cell_MEM_RegWrite"/><g s:x="30" s:y="10" s:pid="Y"/></g><g s:type="inputExt" transform="translate(12,22)" s:width="30" s:height="20" id="cell_MEM_MemData"><text x="15" y="-4" class="nodelabel cell_MEM_MemData" s:attribute="ref">MEM_MemData</text><s:alias val="$_inputExt_"/><path d="M0,0 L0,20 L15,20 L30,10 L15,0 Z" fill="#8bcaff" class="cell_MEM_MemData"/><g s:x="30" s:y="10" s:pid="Y"/></g><g s:type="inputExt" transform="translate(12,251)" s:width="30" s:height="20" id="cell_MEM_ALUresult"><text x="15" y="-4" class="nodelabel cell_MEM_ALUresult" s:attribute="ref">MEM_ALUresult</text><s:alias val="$_inputExt_"/><path d="M0,0 L0,20 L15,20 L30,10 L15,0 Z" fill="#8bcaff" class="cell_MEM_ALUresult"/><g s:x="30" s:y="10" s:pid="Y"/></g><g s:type="inputExt" transform="translate(12,326)" s:width="30" s:height="20" id="cell_MEM_rdReg"><text x="15" y="-4" class="nodelabel cell_MEM_rdReg" s:attribute="ref">MEM_rdReg</text><s:alias val="$_inputExt_"/><path d="M0,0 L0,20 L15,20 L30,10 L15,0 Z" fill="#8bcaff" class="cell_MEM_rdReg"/><g s:x="30" s:y="10" s:pid="Y"/></g><g s:type="outputExt" transform="translate(364,107)" s:width="30" s:height="20" id="cell_WB_MemtoReg"><text x="15" y="-4" class="nodelabel cell_WB_MemtoReg" s:attribute="ref">WB_MemtoReg</text><s:alias val="$_outputExt_"/><path d="M30,0 L30,20 L15,20 L0,10 L15,0 Z" fill="#169300" class="cell_WB_MemtoReg"/><g s:x="0" s:y="10" s:pid="A"/></g><g s:type="outputExt" transform="translate(364,182)" s:width="30" s:height="20" id="cell_WB_RegWrite"><text x="15" y="-4" class="nodelabel cell_WB_RegWrite" s:attribute="ref">WB_RegWrite</text><s:alias val="$_outputExt_"/><path d="M30,0 L30,20 L15,20 L0,10 L15,0 Z" fill="#169300" class="cell_WB_RegWrite"/><g s:x="0" s:y="10" s:pid="A"/></g><g s:type="outputExt" transform="translate(364,22)" s:width="30" s:height="20" id="cell_WB_MemData"><text x="15" y="-4" class="nodelabel cell_WB_MemData" s:attribute="ref">WB_MemData</text><s:alias val="$_outputExt_"/><path d="M30,0 L30,20 L15,20 L0,10 L15,0 Z" fill="#169300" class="cell_WB_MemData"/><g s:x="0" s:y="10" s:pid="A"/></g><g s:type="outputExt" transform="translate(364,251)" s:width="30" s:height="20" id="cell_WB_ALUresult"><text x="15" y="-4" class="nodelabel cell_WB_ALUresult" s:attribute="ref">WB_ALUresult</text><s:alias val="$_outputExt_"/><path d="M30,0 L30,20 L15,20 L0,10 L15,0 Z" fill="#169300" class="cell_WB_ALUresult"/><g s:x="0" s:y="10" s:pid="A"/></g><g s:type="outputExt" transform="translate(364,326)" s:width="30" s:height="20" id="cell_WB_rdReg"><text x="15" y="-4" class="nodelabel cell_WB_rdReg" s:attribute="ref">WB_rdReg</text><s:alias val="$_outputExt_"/><path d="M30,0 L30,20 L15,20 L0,10 L15,0 Z" fill="#169300" class="cell_WB_rdReg"/><g s:x="0" s:y="10" s:pid="A"/></g><line x1="155" x2="297" y1="137" y2="137" class="net_2 width_1" style="stroke-width: 1"/><line x1="155" x2="165" y1="137" y2="137" class="net_2 width_1" style="stroke-width: 1"/><line x1="165" x2="165" y1="137" y2="212" class="net_2 width_1" style="stroke-width: 1"/><circle cx="165" cy="137" r="2" style="fill:#000" class="net_2 width_1"/><circle cx="165" cy="212" r="2" style="fill:#000" class="net_2 width_1"/><line x1="165" x2="297" y1="212" y2="212" class="net_2 width_1" style="stroke-width: 1"/><line x1="155" x2="165" y1="137" y2="137" class="net_2 width_1" style="stroke-width: 1"/><line x1="165" x2="165" y1="137" y2="52" class="net_2 width_1" style="stroke-width: 1"/><line x1="165" x2="203.33333333333334" y1="52" y2="52" class="net_2 width_1" style="stroke-width: 1"/><line x1="155" x2="165" y1="137" y2="137" class="net_2 width_1" style="stroke-width: 1"/><line x1="165" x2="165" y1="137" y2="281" class="net_2 width_1" style="stroke-width: 1"/><circle cx="165" cy="281" r="2" style="fill:#000" class="net_2 width_1"/><line x1="165" x2="203.33333333333334" y1="281" y2="281" class="net_2 width_1" style="stroke-width: 1"/><line x1="155" x2="165" y1="137" y2="137" class="net_2 width_1" style="stroke-width: 1"/><line x1="165" x2="165" y1="137" y2="356" class="net_2 width_1" style="stroke-width: 1"/><line x1="165" x2="203.33333333333334" y1="356" y2="356" class="net_2 width_1" style="stroke-width: 1"/><line x1="220" x2="297" y1="117" y2="117" class="net_3 width_1" style="stroke-width: 1"/><line x1="220" x2="297" y1="192" y2="192" class="net_4 width_1" style="stroke-width: 1"/><line x1="42" x2="203.33333333333334" y1="32" y2="32" class="net_5,6,7,8,9,10,11,12,13,14,15,16,17,18,19,20,21,22,23,24,25,26,27,28,29,30,31,32,33,34,35,36,37,38,39,40,41,42,43,44,45,46,47,48,49,50,51,52,53,54,55,56,57,58,59,60,61,62,63,64,65,66,67,68 width_64" style="stroke-width: 2"/><line x1="42" x2="203.33333333333334" y1="261" y2="261" class="net_69,70,71,72,73,74,75,76,77,78,79,80,81,82,83,84,85,86,87,88,89,90,91,92,93,94,95,96,97,98,99,100,101,102,103,104,105,106,107,108,109,110,111,112,113,114,115,116,117,118,119,120,121,122,123,124,125,126,127,128,129,130,131,132 width_64" style="stroke-width: 2"/><line x1="42" x2="203.33333333333334" y1="336" y2="336" class="net_133,134,135,136,137 width_5" style="stroke-width: 2"/><line x1="329" x2="364" y1="117" y2="117" class="net_138 width_1" style="stroke-width: 1"/><line x1="329" x2="364" y1="192" y2="192" class="net_139 width_1" style="stroke-width: 1"/><line x1="235.33333333333334" x2="364" y1="32" y2="32" class="net_140,141,142,143,144,145,146,147,148,149,150,151,152,153,154,155,156,157,158,159,160,161,162,163,164,165,166,167,168,169,170,171,172,173,174,175,176,177,178,179,180,181,182,183,184,185,186,187,188,189,190,191,192,193,194,195,196,197,198,199,200,201,202,203 width_64" style="stroke-width: 2"/><line x1="235.33333333333334" x2="364" y1="261" y2="261" class="net_204,205,206,207,208,209,210,211,212,213,214,215,216,217,218,219,220,221,222,223,224,225,226,227,228,229,230,231,232,233,234,235,236,237,238,239,240,241,242,243,244,245,246,247,248,249,250,251,252,253,254,255,256,257,258,259,260,261,262,263,264,265,266,267 width_64" style="stroke-width: 2"/><line x1="235.33333333333334" x2="364" y1="336" y2="336" class="net_268,269,270,271,272 width_5" style="stroke-width: 2"/><rect x="139" y="27" width="22" height="9" class="net_5,6,7,8,9,10,11,12,13,14,15,16,17,18,19,20,21,22,23,24,25,26,27,28,29,30,31,32,33,34,35,36,37,38,39,40,41,42,43,44,45,46,47,48,49,50,51,52,53,54,55,56,57,58,59,60,61,62,63,64,65,66,67,68 width_64 busLabel_64" style="fill: white; stroke: none"/><text x="138" y="35" class="net_5,6,7,8,9,10,11,12,13,14,15,16,17,18,19,20,21,22,23,24,25,26,27,28,29,30,31,32,33,34,35,36,37,38,39,40,41,42,43,44,45,46,47,48,49,50,51,52,53,54,55,56,57,58,59,60,61,62,63,64,65,66,67,68 width_64 busLabel_64">/64/</text><rect x="139" y="256" width="22" height="9" class="net_69,70,71,72,73,74,75,76,77,78,79,80,81,82,83,84,85,86,87,88,89,90,91,92,93,94,95,96,97,98,99,100,101,102,103,104,105,106,107,108,109,110,111,112,113,114,115,116,117,118,119,120,121,122,123,124,125,126,127,128,129,130,131,132 width_64 busLabel_64" style="fill: white; stroke: none"/><text x="138" y="264" class="net_69,70,71,72,73,74,75,76,77,78,79,80,81,82,83,84,85,86,87,88,89,90,91,92,93,94,95,96,97,98,99,100,101,102,103,104,105,106,107,108,109,110,111,112,113,114,115,116,117,118,119,120,121,122,123,124,125,126,127,128,129,130,131,132 width_64 busLabel_64">/64/</text><rect x="139" y="331" width="16" height="9" class="net_133,134,135,136,137 width_5 busLabel_5" style="fill: white; stroke: none"/><text x="138" y="339" class="net_133,134,135,136,137 width_5 busLabel_5">/5/</text><rect x="312" y="27" width="22" height="9" class="net_140,141,142,143,144,145,146,147,148,149,150,151,152,153,154,155,156,157,158,159,160,161,162,163,164,165,166,167,168,169,170,171,172,173,174,175,176,177,178,179,180,181,182,183,184,185,186,187,188,189,190,191,192,193,194,195,196,197,198,199,200,201,202,203 width_64 busLabel_64" style="fill: white; stroke: none"/><text x="311" y="35" class="net_140,141,142,143,144,145,146,147,148,149,150,151,152,153,154,155,156,157,158,159,160,161,162,163,164,165,166,167,168,169,170,171,172,173,174,175,176,177,178,179,180,181,182,183,184,185,186,187,188,189,190,191,192,193,194,195,196,197,198,199,200,201,202,203 width_64 busLabel_64">/64/</text><rect x="312" y="256" width="22" height="9" class="net_204,205,206,207,208,209,210,211,212,213,214,215,216,217,218,219,220,221,222,223,224,225,226,227,228,229,230,231,232,233,234,235,236,237,238,239,240,241,242,243,244,245,246,247,248,249,250,251,252,253,254,255,256,257,258,259,260,261,262,263,264,265,266,267 width_64 busLabel_64" style="fill: white; stroke: none"/><text x="311" y="264" class="net_204,205,206,207,208,209,210,211,212,213,214,215,216,217,218,219,220,221,222,223,224,225,226,227,228,229,230,231,232,233,234,235,236,237,238,239,240,241,242,243,244,245,246,247,248,249,250,251,252,253,254,255,256,257,258,259,260,261,262,263,264,265,266,267 width_64 busLabel_64">/64/</text><rect x="312" y="331" width="16" height="9" class="net_268,269,270,271,272 width_5 busLabel_5" style="fill: white; stroke: none"/><text x="311" y="339" class="net_268,269,270,271,272 width_5 busLabel_5">/5/</text></svg>