<svg xmlns="http://www.w3.org/2000/svg" xmlns:xlink="http://www.w3.org/1999/xlink" xmlns:s="https://github.com/nturley/netlistsvg" width="183" height="154"><style>svg {
    stroke:#000;
    fill:none;
    background-color:white;
  }
text {
  fill:#000;
  stroke:none;
  font-size:10px;
  font-weight: bold;
  font-family: "Courier New", monospace;
}
line {
    stroke-linecap: round;
}
.nodelabel {
  text-anchor: middle;
}
.inputPortLabel {
  text-anchor: end;
}
.splitjoinBody {
  fill:#000;
}</style><g s:type="inputExt" transform="translate(12,22)" s:width="30" s:height="20" id="cell_clk"><text x="15" y="-4" class="nodelabel cell_clk" s:attribute="ref">clk</text><s:alias val="$_inputExt_"/><path d="M0,0 L0,20 L15,20 L30,10 L15,0 Z" fill="#8bcaff" class="cell_clk"/><g s:x="30" s:y="10" s:pid="Y"/></g><g s:type="inputExt" transform="translate(62,22)" s:width="30" s:height="20" id="cell_PCrst"><text x="15" y="-4" class="nodelabel cell_PCrst" s:attribute="ref">PCrst</text><s:alias val="$_inputExt_"/><path d="M0,0 L0,20 L15,20 L30,10 L15,0 Z" fill="#8bcaff" class="cell_PCrst"/><g s:x="30" s:y="10" s:pid="Y"/></g><g s:type="inputExt" transform="translate(112,22)" s:width="30" s:height="20" id="cell_PCen"><text x="15" y="-4" class="nodelabel cell_PCen" s:attribute="ref">PCen</text><s:alias val="$_inputExt_"/><path d="M0,0 L0,20 L15,20 L30,10 L15,0 Z" fill="#8bcaff" class="cell_PCen"/><g s:x="30" s:y="10" s:pid="Y"/></g><g s:type="inputExt" transform="translate(12,72)" s:width="30" s:height="20" id="cell_PCnext"><text x="15" y="-4" class="nodelabel cell_PCnext" s:attribute="ref">PCnext</text><s:alias val="$_inputExt_"/><path d="M0,0 L0,20 L15,20 L30,10 L15,0 Z" fill="#8bcaff" class="cell_PCnext"/><g s:x="30" s:y="10" s:pid="Y"/></g><g s:type="outputExt" transform="translate(117,122)" s:width="30" s:height="20" id="cell_PCaddress"><text x="15" y="-4" class="nodelabel cell_PCaddress" s:attribute="ref">PCaddress</text><s:alias val="$_outputExt_"/><path d="M30,0 L30,20 L15,20 L0,10 L15,0 Z" fill="#169300" class="cell_PCaddress"/><g s:x="0" s:y="10" s:pid="A"/></g><g s:type="constant" transform="translate(12,122)" s:width="30" s:height="20" id="cell_0000000000000000000000000000000000000000000000000000000000000000"><text x="15" y="-4" class="nodelabel cell_0000000000000000000000000000000000000000000000000000000000000000" s:attribute="ref">0x0</text><s:alias val="$_constant_"/><rect width="30" height="20" fill="#745bff" class="cell_0000000000000000000000000000000000000000000000000000000000000000"/><g s:x="31" s:y="10" s:pid="Y"/></g><line x1="43" x2="117" y1="132" y2="132" class="net_69,70,71,72,73,74,75,76,77,78,79,80,81,82,83,84,85,86,87,88,89,90,91,92,93,94,95,96,97,98,99,100,101,102,103,104,105,106,107,108,109,110,111,112,113,114,115,116,117,118,119,120,121,122,123,124,125,126,127,128,129,130,131,132 width_64" style="stroke-width: 2"/><rect x="79" y="127" width="22" height="9" class="net_69,70,71,72,73,74,75,76,77,78,79,80,81,82,83,84,85,86,87,88,89,90,91,92,93,94,95,96,97,98,99,100,101,102,103,104,105,106,107,108,109,110,111,112,113,114,115,116,117,118,119,120,121,122,123,124,125,126,127,128,129,130,131,132 width_64 busLabel_64" style="fill: white; stroke: none"/><text x="78" y="135" class="net_69,70,71,72,73,74,75,76,77,78,79,80,81,82,83,84,85,86,87,88,89,90,91,92,93,94,95,96,97,98,99,100,101,102,103,104,105,106,107,108,109,110,111,112,113,114,115,116,117,118,119,120,121,122,123,124,125,126,127,128,129,130,131,132 width_64 busLabel_64">/64/</text></svg>